<svg width="21" height="21" fill="none" xmlns="http://www.w3.org/2000/svg"><path fill-rule="evenodd" clip-rule="evenodd" d="M20.934 9.334c-.033-.295-.377-.517-.675-.517a2.332 2.332 0 01-2.174-1.439 2.339 2.339 0 01.587-2.596.583.583 0 00.064-.792 10.39 10.39 0 00-1.663-1.68.584.584 0 00-.798.065c-.626.693-1.75.95-2.62.588a2.332 2.332 0 01-1.418-2.28.583.583 0 00-.515-.613A10.484 10.484 0 009.36.064a.584.584 0 00-.52.6 2.336 2.336 0 01-1.438 2.24c-.858.351-1.975.096-2.6-.591a.586.586 0 00-.792-.067 10.43 10.43 0 00-1.698 1.68.584.584 0 00.062.798c.731.662.967 1.714.587 2.62C2.6 8.207 1.703 8.763.677 8.763a.57.57 0 00-.607.515 10.518 10.518 0 00-.004 2.388c.033.297.387.517.688.517.915-.024 1.793.542 2.16 1.438a2.335 2.335 0 01-.586 2.597.584.584 0 00-.064.791 10.426 10.426 0 001.66 1.68.583.583 0 00.8-.063c.628-.695 1.752-.952 2.618-.588a2.329 2.329 0 011.42 2.279.583.583 0 00.516.613 10.438 10.438 0 002.362.006.585.585 0 00.52-.601 2.334 2.334 0 011.437-2.24c.864-.352 1.975-.094 2.6.592.208.226.55.253.793.067a10.46 10.46 0 001.698-1.68.583.583 0 00-.063-.798 2.327 2.327 0 01-.588-2.62 2.35 2.35 0 012.148-1.423l.13.004a.584.584 0 00.615-.515c.092-.79.093-1.593.004-2.388zm-10.417 4.69a3.506 3.506 0 01-3.503-3.502 3.506 3.506 0 013.503-3.502 3.506 3.506 0 013.502 3.502 3.506 3.506 0 01-3.502 3.503z" fill="#255390"/></svg>