<svg width="23" height="15" fill="none" xmlns="http://www.w3.org/2000/svg"><path d="M16.416 5.175a.25.25 0 01.069-.189l2.211-2.345a.292.292 0 01.394-.024 10.894 10.894 0 012.507 2.919c.036.06.044.132.023.198a.264.264 0 01-.134.155l-2.939 1.497a.294.294 0 01-.134.032.283.283 0 01-.245-.135 7.204 7.204 0 00-1.658-1.93.253.253 0 01-.094-.178zm-.986-.869a.282.282 0 01-.248.138.294.294 0 01-.13-.03 7.908 7.908 0 00-2.519-.756c-.153-.02-.26-.15-.239-.293l.45-3.094c.02-.142.162-.242.314-.222 1.342.17 2.629.555 3.825 1.146a.252.252 0 01.116.352l-1.57 2.759zm3.594 4.187l3.233-.818a.297.297 0 01.212.026.264.264 0 01.13.157 10.068 10.068 0 01.388 3.314c-.007.14-.13.248-.278.248h-.014l-3.346-.145a.288.288 0 01-.193-.084.25.25 0 01-.072-.188 6.658 6.658 0 00-.256-2.19c-.04-.14.048-.282.197-.32zM6.512 1.01A12.06 12.06 0 0110.38 0a.292.292 0 01.204.058.256.256 0 01.1.176l.324 3.108c.015.143-.098.27-.251.284a7.944 7.944 0 00-2.548.664.296.296 0 01-.214.012.273.273 0 01-.159-.133L6.382 1.357a.253.253 0 01.13-.347zm-4.92 4.365a.245.245 0 01.031-.197A10.986 10.986 0 014.248 2.35a.294.294 0 01.393.037L6.754 4.81a.248.248 0 01-.04.366 7.265 7.265 0 00-1.736 1.87.293.293 0 01-.383.09L1.72 5.533a.263.263 0 01-.128-.16zM.524 7.463a.283.283 0 01.35-.17l3.196.933c.148.043.23.189.183.326a6.64 6.64 0 00-.337 2.452.25.25 0 01-.072.187.287.287 0 01-.194.084l-3.345.144H.29c-.148 0-.271-.108-.278-.247a10.022 10.022 0 01.511-3.71zm10.986 2.656c.048 0 .096.001.143.004l4.535-2.494a.303.303 0 01.345.037.255.255 0 01.054.32l-2.473 4.321a2.316 2.316 0 01-.753 1.978A2.7 2.7 0 0111.51 15a2.7 2.7 0 01-1.851-.715 2.344 2.344 0 01-.767-1.726c0-.652.272-1.264.767-1.725a2.7 2.7 0 011.85-.715z" fill="#F2AE4B"/></svg>