<svg width="22" height="21" fill="none" xmlns="http://www.w3.org/2000/svg"><path d="M18.814 3.07C16.875 1.13 14.29 0 11.383 0 8.475 0 5.89 1.212 3.952 3.07 2.014 5.007.882 7.591.882 10.5c0 2.908 1.212 5.492 3.07 7.43C5.891 19.87 8.475 21 11.382 21c2.909 0 5.493-1.212 7.432-3.07 1.938-1.938 3.069-4.522 3.069-7.43 0-2.908-1.212-5.492-3.07-7.43zm-2.262 12.6c-1.373 1.372-3.23 2.1-5.17 2.1-1.938 0-3.795-.728-5.168-2.1-1.374-1.374-2.1-3.232-2.1-5.17 0-1.938.726-3.796 2.1-5.17 1.373-1.372 3.23-2.1 5.169-2.1 1.938 0 3.796.728 5.169 2.1 1.373 1.374 2.1 3.232 2.1 5.17 0 1.938-.727 3.796-2.1 5.17z" fill="#24528F"/><path d="M12.19 4.846h-1.615c-.485 0-.808.323-.808.808v1.615c0 .485.323.808.808.808h1.615c.485 0 .808-.323.808-.808V5.654c0-.485-.323-.808-.808-.808zm0 4.847h-1.615c-.485 0-.808.323-.808.807v4.846c0 .485.323.808.808.808h1.615c.485 0 .808-.323.808-.808V10.5c0-.484-.323-.807-.808-.807z" fill="#24528F"/></svg>