<svg width="21" height="21" fill="none" xmlns="http://www.w3.org/2000/svg"><path d="M10.008 13.797c.01-.62.08-1.11.21-1.469.131-.36.397-.758.798-1.195l1.023-1.055c.438-.495.656-1.026.656-1.594 0-.546-.143-.974-.43-1.28-.286-.313-.703-.47-1.25-.47-.53 0-.958.141-1.28.422-.324.282-.485.66-.485 1.133H7.805c.01-.844.31-1.523.898-2.039.594-.52 1.365-.781 2.313-.781.984 0 1.75.265 2.296.797.553.526.829 1.25.829 2.171 0 .912-.422 1.81-1.266 2.696l-.852.844c-.38.421-.57 1.028-.57 1.82h-1.445zm-.063 2.476c0-.234.07-.43.211-.585.146-.162.36-.243.64-.243.282 0 .496.081.642.242a.826.826 0 01.218.586c0 .235-.073.43-.219.586-.145.151-.359.227-.64.227s-.495-.076-.64-.227a.844.844 0 01-.212-.586z" fill="#EB5757"/><circle cx="10.5" cy="10.5" r="10" stroke="#EB5757"/></svg>