<svg width="20" height="20" fill="none" xmlns="http://www.w3.org/2000/svg"><path d="M9.008 12.297c.01-.62.08-1.11.21-1.469.131-.36.397-.758.798-1.195l1.023-1.055c.438-.495.656-1.026.656-1.594 0-.546-.143-.974-.43-1.28-.286-.313-.702-.47-1.25-.47-.53 0-.958.141-1.28.422-.323.282-.485.66-.485 1.133H6.805c.01-.844.31-1.523.898-2.039.594-.52 1.365-.781 2.313-.781.984 0 1.75.265 2.297.797.552.526.828 1.25.828 2.171 0 .912-.422 1.81-1.266 2.696l-.851.844c-.38.421-.57 1.028-.57 1.82H9.007zm-.063 2.476c0-.234.07-.43.211-.585.146-.162.36-.243.641-.243s.495.081.64.242a.826.826 0 01.22.586.82.82 0 01-.22.586c-.145.151-.359.227-.64.227s-.495-.076-.64-.227a.843.843 0 01-.212-.586z" fill="#828282"/><circle cx="10" cy="10" r="9.5" stroke="#929292"/></svg>