<svg width="870" height="201" fill="none" xmlns="http://www.w3.org/2000/svg"><path fill="#F2F5FA" d="M315 14.18h40v134h-40z"/><path d="M32.059 149.541c0 1.27-.217 2.213-.65 2.83-.434.618-1.112.926-2.034.926-.91 0-1.584-.301-2.021-.902-.438-.606-.665-1.508-.68-2.707v-1.448c0-1.253.217-2.185.65-2.794.434-.61 1.113-.915 2.04-.915.917 0 1.593.295 2.027.885.433.586.656 1.492.668 2.719v1.406zm-1.084-1.482c0-.918-.13-1.586-.387-2.004-.258-.422-.666-.633-1.225-.633-.554 0-.959.209-1.213.627-.253.418-.384 1.061-.392 1.928v1.734c0 .922.133 1.604.398 2.045.27.438.676.656 1.219.656.535 0 .932-.207 1.19-.621.261-.414.398-1.066.41-1.957v-1.775zm11.736-3.41v5.8c-.004.805-.258 1.463-.762 1.975-.5.512-1.18.799-2.039.861l-.299.012c-.933 0-1.677-.252-2.232-.756-.555-.504-.836-1.197-.844-2.08v-5.812h1.113v5.777c0 .617.17 1.098.51 1.441.34.34.824.51 1.453.51.637 0 1.123-.17 1.46-.51.34-.339.51-.818.51-1.435v-5.783h1.13zM47 149.377c-.965-.277-1.668-.617-2.11-1.019a1.969 1.969 0 01-.656-1.5c0-.672.268-1.227.803-1.664.54-.442 1.238-.663 2.098-.663.586 0 1.107.114 1.564.34.461.227.817.539 1.067.938.254.398.38.834.38 1.306h-1.13c0-.515-.164-.919-.493-1.212-.328-.297-.79-.446-1.388-.446-.555 0-.988.123-1.301.369-.309.243-.463.58-.463 1.014 0 .348.147.643.44.885.296.238.798.457 1.505.656.711.199 1.266.42 1.664.662.403.238.7.518.891.838.195.32.293.697.293 1.131 0 .691-.27 1.246-.809 1.664-.539.414-1.26.621-2.162.621a4.035 4.035 0 01-1.64-.334c-.508-.226-.9-.535-1.178-.926a2.262 2.262 0 01-.41-1.33h1.13c0 .516.19.924.57 1.225.382.297.892.445 1.528.445.594 0 1.05-.121 1.366-.363.316-.242.474-.572.474-.99 0-.418-.146-.741-.44-.967-.292-.231-.824-.457-1.593-.68zm4.611 3.803v-8.531h2.409c.742 0 1.398.164 1.968.492.57.328 1.01.795 1.319 1.4.312.606.47 1.301.474 2.086v.545c0 .805-.156 1.51-.468 2.115a3.251 3.251 0 01-1.33 1.395c-.575.324-1.245.49-2.01.498H51.61zm1.125-7.606v6.686h1.184c.867 0 1.54-.27 2.021-.809.485-.539.727-1.306.727-2.302v-.498c0-.969-.228-1.721-.686-2.256-.453-.539-1.097-.813-1.933-.821h-1.313zm23.054 18.967c0 1.27-.218 2.213-.651 2.83-.434.618-1.112.926-2.033.926-.91 0-1.584-.301-2.022-.902-.438-.606-.664-1.508-.68-2.707v-1.448c0-1.253.217-2.185.65-2.794.434-.61 1.114-.915 2.04-.915.918 0 1.594.295 2.027.885.434.586.656 1.492.668 2.719v1.406zm-1.085-1.482c0-.918-.129-1.586-.387-2.004-.257-.422-.666-.633-1.224-.633-.555 0-.96.209-1.213.627-.254.418-.385 1.061-.393 1.928v1.734c0 .922.133 1.604.399 2.045.27.438.675.656 1.219.656.535 0 .931-.207 1.189-.621.262-.414.398-1.066.41-1.957v-1.775zm6.035 5.121h-1.09v-7.225l-2.185.803v-.984l3.105-1.166h.17v8.572zm7.887-8.531l2.789 6.961 2.79-6.961h1.458v8.531H94.54v-3.322l.105-3.586-2.8 6.908h-.862l-2.794-6.891.11 3.569v3.322h-1.124v-8.531h1.453zm12.768 8.531c-.063-.125-.114-.348-.153-.668-.504.523-1.105.785-1.805.785-.624 0-1.138-.176-1.54-.527a1.73 1.73 0 01-.598-1.348c0-.66.25-1.172.75-1.535.504-.367 1.21-.551 2.121-.551h1.055v-.498c0-.379-.114-.68-.34-.902-.227-.227-.561-.34-1.002-.34-.387 0-.711.098-.973.293-.262.195-.392.432-.392.709h-1.09c0-.317.111-.621.334-.914a2.31 2.31 0 01.914-.703c.386-.172.81-.258 1.271-.258.731 0 1.303.183 1.717.551.414.363.629.865.645 1.506v2.918c0 .582.074 1.044.222 1.388v.094h-1.136zm-1.8-.826a1.9 1.9 0 00.967-.264c.305-.176.526-.404.663-.685v-1.301h-.85c-1.328 0-1.992.388-1.992 1.166 0 .34.113.605.34.797.226.191.517.287.873.287zm7.477-4.541a3.178 3.178 0 00-.533-.041c-.711 0-1.193.302-1.447.908v4.5h-1.084v-6.34h1.054l.018.733c.356-.567.859-.85 1.512-.85.211 0 .371.027.48.082v1.008zm18.147 1.728c0 1.27-.217 2.213-.651 2.83-.433.618-1.111.926-2.033.926-.91 0-1.584-.301-2.021-.902-.438-.606-.664-1.508-.68-2.707v-1.448c0-1.253.217-2.185.65-2.794.434-.61 1.114-.915 2.039-.915.918 0 1.594.295 2.028.885.433.586.656 1.492.668 2.719v1.406zm-1.084-1.482c0-.918-.129-1.586-.387-2.004-.258-.422-.666-.633-1.225-.633-.554 0-.959.209-1.212.627-.254.418-.385 1.061-.393 1.928v1.734c0 .922.133 1.604.398 2.045.27.438.676.656 1.219.656.535 0 .932-.207 1.19-.621.261-.414.398-1.066.41-1.957v-1.775zm6.035 5.121h-1.09v-7.225l-2.185.803v-.984l3.105-1.166h.17v8.572zm7.887-8.531l2.789 6.961 2.789-6.961h1.459v8.531h-1.125v-3.322l.105-3.586-2.801 6.908h-.861l-2.795-6.891.112 3.569v3.322h-1.125v-8.531h1.453zm12.767 8.531c-.062-.125-.113-.348-.152-.668-.504.523-1.106.785-1.805.785-.625 0-1.138-.176-1.541-.527a1.73 1.73 0 01-.597-1.348c0-.66.25-1.172.75-1.535.503-.367 1.21-.551 2.121-.551h1.054v-.498c0-.379-.113-.68-.34-.902-.226-.227-.56-.34-1.002-.34-.386 0-.71.098-.972.293-.262.195-.393.432-.393.709h-1.09c0-.317.112-.621.334-.914.227-.297.532-.531.914-.703a3.097 3.097 0 011.272-.258c.73 0 1.303.183 1.717.551.414.363.629.865.644 1.506v2.918c0 .582.075 1.044.223 1.388v.094h-1.137zm-1.799-.826c.34 0 .663-.088.967-.264a1.59 1.59 0 00.662-.685v-1.301h-.849c-1.328 0-1.993.388-1.993 1.166 0 .34.114.605.34.797.227.191.518.287.873.287zm7.477-4.541a3.178 3.178 0 00-.533-.041c-.711 0-1.194.302-1.448.908v4.5h-1.083v-6.34h1.054l.018.733c.355-.567.859-.85 1.511-.85.211 0 .372.027.481.082v1.008zm18.146 1.728c0 1.27-.216 2.213-.65 2.83-.434.618-1.111.926-2.033.926-.91 0-1.584-.301-2.022-.902-.437-.606-.664-1.508-.679-2.707v-1.448c0-1.253.216-2.185.65-2.794.434-.61 1.113-.915 2.039-.915.918 0 1.594.295 2.027.885.434.586.657 1.492.668 2.719v1.406zm-1.084-1.482c0-.918-.128-1.586-.386-2.004-.258-.422-.666-.633-1.225-.633-.555 0-.959.209-1.213.627-.254.418-.385 1.061-.392 1.928v1.734c0 .922.132 1.604.398 2.045.27.438.676.656 1.219.656.535 0 .931-.207 1.189-.621.262-.414.399-1.066.41-1.957v-1.775zm6.036 5.121h-1.09v-7.225l-2.186.803v-.984l3.106-1.166h.17v8.572zm7.886-8.531l2.789 6.961 2.789-6.961h1.459v8.531h-1.125v-3.322l.106-3.586-2.801 6.908h-.861l-2.795-6.891.111 3.569v3.322h-1.125v-8.531h1.453zm12.768 8.531c-.063-.125-.113-.348-.152-.668-.504.523-1.106.785-1.805.785-.625 0-1.139-.176-1.541-.527a1.728 1.728 0 01-.598-1.348c0-.66.25-1.172.75-1.535.504-.367 1.211-.551 2.121-.551h1.055v-.498c0-.379-.113-.68-.34-.902-.226-.227-.56-.34-1.002-.34-.387 0-.711.098-.972.293-.262.195-.393.432-.393.709h-1.09c0-.317.111-.621.334-.914.227-.297.531-.531.914-.703a3.097 3.097 0 011.272-.258c.73 0 1.302.183 1.716.551.415.363.629.865.645 1.506v2.918c0 .582.074 1.044.223 1.388v.094h-1.137zm-1.799-.826c.34 0 .662-.088.967-.264.305-.176.525-.404.662-.685v-1.301h-.85c-1.328 0-1.992.388-1.992 1.166 0 .34.113.605.34.797.227.191.518.287.873.287zm7.477-4.541a3.182 3.182 0 00-.534-.041c-.711 0-1.193.302-1.447.908v4.5h-1.084v-6.34h1.055l.017.733c.356-.567.86-.85 1.512-.85.211 0 .371.027.481.082v1.008zm18.146 1.728c0 1.27-.217 2.213-.65 2.83-.434.618-1.112.926-2.033.926-.911 0-1.584-.301-2.022-.902-.437-.606-.664-1.508-.68-2.707v-1.448c0-1.253.217-2.185.651-2.794.433-.61 1.113-.915 2.039-.915.918 0 1.594.295 2.027.885.434.586.656 1.492.668 2.719v1.406zm-1.084-1.482c0-.918-.129-1.586-.387-2.004-.257-.422-.666-.633-1.224-.633-.555 0-.959.209-1.213.627-.254.418-.385 1.061-.393 1.928v1.734c0 .922.133 1.604.399 2.045.269.438.676.656 1.219.656.535 0 .931-.207 1.189-.621.262-.414.398-1.066.41-1.957v-1.775zm6.035 5.121h-1.09v-7.225l-2.185.803v-.984l3.105-1.166h.17v8.572zm7.887-8.531l2.789 6.961 2.789-6.961h1.459v8.531h-1.125v-3.322l.106-3.586-2.801 6.908h-.862l-2.794-6.891.111 3.569v3.322h-1.125v-8.531h1.453zm12.768 8.531c-.063-.125-.114-.348-.153-.668-.504.523-1.105.785-1.804.785-.625 0-1.139-.176-1.541-.527a1.728 1.728 0 01-.598-1.348c0-.66.25-1.172.75-1.535.504-.367 1.211-.551 2.121-.551h1.055v-.498c0-.379-.114-.68-.34-.902-.227-.227-.561-.34-1.002-.34-.387 0-.711.098-.973.293-.261.195-.392.432-.392.709h-1.09c0-.317.111-.621.334-.914a2.31 2.31 0 01.914-.703c.387-.172.81-.258 1.271-.258.731 0 1.303.183 1.717.551.414.363.629.865.645 1.506v2.918c0 .582.074 1.044.222 1.388v.094h-1.136zm-1.799-.826c.34 0 .662-.088.967-.264.304-.176.525-.404.662-.685v-1.301h-.85c-1.328 0-1.992.388-1.992 1.166 0 .34.113.605.34.797.226.191.517.287.873.287zm7.476-4.541a3.17 3.17 0 00-.533-.041c-.711 0-1.193.302-1.447.908v4.5h-1.084v-6.34h1.055l.017.733c.356-.567.86-.85 1.512-.85.211 0 .371.027.48.082v1.008zm18.147 1.728c0 1.27-.217 2.213-.651 2.83-.433.618-1.111.926-2.033.926-.91 0-1.584-.301-2.021-.902-.438-.606-.664-1.508-.68-2.707v-1.448c0-1.253.217-2.185.65-2.794.434-.61 1.114-.915 2.039-.915.918 0 1.594.295 2.028.885.433.586.656 1.492.668 2.719v1.406zm-1.084-1.482c0-.918-.129-1.586-.387-2.004-.258-.422-.666-.633-1.225-.633-.554 0-.958.209-1.212.627-.254.418-.385 1.061-.393 1.928v1.734c0 .922.133 1.604.398 2.045.27.438.676.656 1.219.656.535 0 .932-.207 1.19-.621.261-.414.398-1.066.41-1.957v-1.775zm6.035 5.121h-1.09v-7.225l-2.185.803v-.984l3.105-1.166h.17v8.572zm7.887-8.531l2.789 6.961 2.789-6.961h1.459v8.531h-1.125v-3.322l.105-3.586-2.801 6.908h-.861l-2.795-6.891.112 3.569v3.322h-1.125v-8.531h1.453zm12.767 8.531c-.062-.125-.113-.348-.152-.668-.504.523-1.106.785-1.805.785-.625 0-1.138-.176-1.541-.527a1.73 1.73 0 01-.597-1.348c0-.66.25-1.172.75-1.535.503-.367 1.211-.551 2.121-.551h1.054v-.498c0-.379-.113-.68-.339-.902-.227-.227-.561-.34-1.002-.34-.387 0-.711.098-.973.293-.262.195-.393.432-.393.709h-1.09c0-.317.112-.621.334-.914a2.32 2.32 0 01.915-.703c.386-.172.81-.258 1.271-.258.73 0 1.303.183 1.717.551.414.363.629.865.644 1.506v2.918c0 .582.075 1.044.223 1.388v.094h-1.137zm-1.799-.826c.34 0 .663-.088.967-.264a1.59 1.59 0 00.662-.685v-1.301h-.849c-1.328 0-1.992.388-1.992 1.166 0 .34.113.605.339.797.227.191.518.287.873.287zm7.477-4.541a3.178 3.178 0 00-.533-.041c-.711 0-1.194.302-1.447.908v4.5h-1.084v-6.34h1.054l.018.733c.355-.567.859-.85 1.512-.85.21 0 .371.027.48.082v1.008zm67.576 1.728c0 1.27-.217 2.213-.65 2.83-.434.618-1.112.926-2.033.926-.911 0-1.584-.301-2.022-.902-.437-.606-.664-1.508-.68-2.707v-1.448c0-1.253.217-2.185.651-2.794.433-.61 1.113-.915 2.039-.915.918 0 1.594.295 2.027.885.434.586.656 1.492.668 2.719v1.406zm-1.084-1.482c0-.918-.129-1.586-.387-2.004-.257-.422-.666-.633-1.224-.633-.555 0-.959.209-1.213.627-.254.418-.385 1.061-.393 1.928v1.734c0 .922.133 1.604.399 2.045.269.438.676.656 1.219.656.535 0 .931-.207 1.189-.621.262-.414.398-1.066.41-1.957v-1.775zm6.035 5.121h-1.089v-7.225l-2.186.803v-.984l3.105-1.166h.17v8.572zm7.887-8.531l2.789 6.961 2.789-6.961h1.459v8.531h-1.125v-3.322l.106-3.586-2.801 6.908h-.861l-2.795-6.891.111 3.569v3.322h-1.125v-8.531h1.453zm12.768 8.531c-.063-.125-.114-.348-.153-.668-.504.523-1.105.785-1.804.785-.625 0-1.139-.176-1.541-.527a1.728 1.728 0 01-.598-1.348c0-.66.25-1.172.75-1.535.504-.367 1.211-.551 2.121-.551h1.055v-.498c0-.379-.114-.68-.34-.902-.227-.227-.561-.34-1.002-.34-.387 0-.711.098-.973.293-.261.195-.392.432-.392.709h-1.09c0-.317.111-.621.334-.914a2.31 2.31 0 01.914-.703c.387-.172.81-.258 1.271-.258.731 0 1.303.183 1.717.551.414.363.629.865.645 1.506v2.918c0 .582.074 1.044.222 1.388v.094h-1.136zm-1.799-.826c.34 0 .662-.088.967-.264.304-.176.525-.404.662-.685v-1.301h-.85c-1.328 0-1.992.388-1.992 1.166 0 .34.113.605.34.797.226.191.517.287.873.287zm7.476-4.541a3.17 3.17 0 00-.533-.041c-.711 0-1.193.302-1.447.908v4.5h-1.084v-6.34h1.055l.017.733c.356-.567.86-.85 1.512-.85.211 0 .371.027.48.082v1.008zm18.147 1.728c0 1.27-.217 2.213-.651 2.83-.433.618-1.111.926-2.033.926-.91 0-1.584-.301-2.021-.902-.438-.606-.664-1.508-.68-2.707v-1.448c0-1.253.217-2.185.65-2.794.434-.61 1.114-.915 2.04-.915.918 0 1.593.295 2.027.885.433.586.656 1.492.668 2.719v1.406zm-1.084-1.482c0-.918-.129-1.586-.387-2.004-.258-.422-.666-.633-1.224-.633-.555 0-.959.209-1.213.627-.254.418-.385 1.061-.393 1.928v1.734c0 .922.133 1.604.399 2.045.269.438.675.656 1.218.656.535 0 .932-.207 1.19-.621.261-.414.398-1.066.41-1.957v-1.775zm6.035 5.121h-1.09v-7.225l-2.185.803v-.984l3.105-1.166h.17v8.572zm7.887-8.531l2.789 6.961 2.789-6.961h1.459v8.531h-1.125v-3.322l.105-3.586-2.8 6.908h-.862l-2.795-6.891.112 3.569v3.322h-1.125v-8.531h1.453zm12.767 8.531c-.062-.125-.113-.348-.152-.668-.504.523-1.105.785-1.805.785-.625 0-1.138-.176-1.541-.527a1.73 1.73 0 01-.597-1.348c0-.66.25-1.172.75-1.535.504-.367 1.211-.551 2.121-.551h1.054v-.498c0-.379-.113-.68-.339-.902-.227-.227-.561-.34-1.002-.34-.387 0-.711.098-.973.293-.262.195-.393.432-.393.709h-1.089c0-.317.111-.621.334-.914a2.31 2.31 0 01.914-.703c.386-.172.81-.258 1.271-.258.731 0 1.303.183 1.717.551.414.363.629.865.644 1.506v2.918c0 .582.075 1.044.223 1.388v.094h-1.137zm-1.798-.826a1.9 1.9 0 00.966-.264 1.59 1.59 0 00.662-.685v-1.301h-.849c-1.328 0-1.992.388-1.992 1.166 0 .34.113.605.339.797.227.191.518.287.874.287zm7.476-4.541a3.178 3.178 0 00-.533-.041c-.711 0-1.193.302-1.447.908v4.5h-1.084v-6.34h1.054l.018.733c.355-.567.859-.85 1.512-.85.211 0 .371.027.48.082v1.008zm18.147 1.728c0 1.27-.217 2.213-.651 2.83-.433.618-1.111.926-2.033.926-.91 0-1.584-.301-2.022-.902-.437-.606-.664-1.508-.679-2.707v-1.448c0-1.253.217-2.185.65-2.794.434-.61 1.113-.915 2.039-.915.918 0 1.594.295 2.028.885.433.586.656 1.492.668 2.719v1.406zm-1.084-1.482c0-.918-.129-1.586-.387-2.004-.258-.422-.666-.633-1.225-.633-.554 0-.959.209-1.213.627-.254.418-.384 1.061-.392 1.928v1.734c0 .922.133 1.604.398 2.045.27.438.676.656 1.219.656.535 0 .932-.207 1.189-.621.262-.414.399-1.066.411-1.957v-1.775zm6.035 5.121h-1.09v-7.225l-2.186.803v-.984l3.106-1.166h.17v8.572zm7.886-8.531l2.79 6.961 2.789-6.961h1.459v8.531h-1.125v-3.322l.105-3.586-2.801 6.908h-.861l-2.795-6.891.111 3.569v3.322h-1.125v-8.531h1.453zm12.768 8.531c-.062-.125-.113-.348-.152-.668-.504.523-1.106.785-1.805.785-.625 0-1.139-.176-1.541-.527a1.731 1.731 0 01-.598-1.348c0-.66.25-1.172.75-1.535.504-.367 1.211-.551 2.121-.551h1.055v-.498c0-.379-.113-.68-.34-.902-.226-.227-.56-.34-1.002-.34-.386 0-.711.098-.972.293-.262.195-.393.432-.393.709h-1.09c0-.317.112-.621.334-.914.227-.297.531-.531.914-.703a3.097 3.097 0 011.272-.258c.73 0 1.302.183 1.717.551.414.363.628.865.644 1.506v2.918c0 .582.074 1.044.223 1.388v.094h-1.137zm-1.799-.826c.34 0 .662-.088.967-.264.305-.176.525-.404.662-.685v-1.301h-.85c-1.328 0-1.992.388-1.992 1.166 0 .34.114.605.34.797.227.191.518.287.873.287zm7.477-4.541a3.178 3.178 0 00-.533-.041c-.711 0-1.194.302-1.448.908v4.5h-1.084v-6.34h1.055l.018.733c.355-.567.859-.85 1.511-.85.211 0 .371.027.481.082v1.008zm18.146 1.728c0 1.27-.217 2.213-.65 2.83-.434.618-1.111.926-2.033.926-.911 0-1.584-.301-2.022-.902-.437-.606-.664-1.508-.68-2.707v-1.448c0-1.253.217-2.185.651-2.794.433-.61 1.113-.915 2.039-.915.918 0 1.594.295 2.027.885.434.586.657 1.492.668 2.719v1.406zm-1.084-1.482c0-.918-.129-1.586-.386-2.004-.258-.422-.666-.633-1.225-.633-.555 0-.959.209-1.213.627-.254.418-.385 1.061-.393 1.928v1.734c0 .922.133 1.604.399 2.045.269.438.676.656 1.219.656.535 0 .931-.207 1.189-.621.262-.414.399-1.066.41-1.957v-1.775zm6.035 5.121h-1.089v-7.225l-2.186.803v-.984l3.106-1.166h.169v8.572zm7.887-8.531l2.789 6.961 2.789-6.961h1.459v8.531h-1.125v-3.322l.106-3.586-2.801 6.908h-.861l-2.795-6.891.111 3.569v3.322h-1.125v-8.531h1.453zm12.768 8.531c-.063-.125-.114-.348-.153-.668-.504.523-1.105.785-1.804.785-.625 0-1.139-.176-1.541-.527a1.728 1.728 0 01-.598-1.348c0-.66.25-1.172.75-1.535.504-.367 1.211-.551 2.121-.551h1.055v-.498c0-.379-.113-.68-.34-.902-.227-.227-.561-.34-1.002-.34-.387 0-.711.098-.973.293-.261.195-.392.432-.392.709h-1.09c0-.317.111-.621.334-.914a2.31 2.31 0 01.914-.703 3.095 3.095 0 011.271-.258c.731 0 1.303.183 1.717.551.414.363.629.865.645 1.506v2.918c0 .582.074 1.044.222 1.388v.094h-1.136zm-1.799-.826c.34 0 .662-.088.967-.264.304-.176.525-.404.662-.685v-1.301h-.85c-1.328 0-1.992.388-1.992 1.166 0 .34.113.605.34.797.226.191.517.287.873.287zm7.476-4.541a3.17 3.17 0 00-.533-.041c-.711 0-1.193.302-1.447.908v4.5h-1.084v-6.34h1.055l.017.733c.356-.567.86-.85 1.512-.85.211 0 .371.027.48.082v1.008zm18.147 1.728c0 1.27-.217 2.213-.65 2.83-.434.618-1.112.926-2.034.926-.91 0-1.584-.301-2.021-.902-.438-.606-.664-1.508-.68-2.707v-1.448c0-1.253.217-2.185.651-2.794.433-.61 1.113-.915 2.039-.915.918 0 1.593.295 2.027.885.434.586.656 1.492.668 2.719v1.406zm-1.084-1.482c0-.918-.129-1.586-.387-2.004-.258-.422-.666-.633-1.224-.633-.555 0-.959.209-1.213.627-.254.418-.385 1.061-.393 1.928v1.734c0 .922.133 1.604.399 2.045.269.438.675.656 1.218.656.535 0 .932-.207 1.19-.621.262-.414.398-1.066.41-1.957v-1.775zm6.035 5.121h-1.09v-7.225l-2.185.803v-.984l3.105-1.166h.17v8.572zm7.887-8.531l2.789 6.961 2.789-6.961h1.459v8.531h-1.125v-3.322l.105-3.586-2.8 6.908h-.862l-2.795-6.891.112 3.569v3.322h-1.125v-8.531h1.453zm12.767 8.531c-.062-.125-.113-.348-.152-.668-.504.523-1.105.785-1.805.785-.625 0-1.138-.176-1.541-.527a1.73 1.73 0 01-.597-1.348c0-.66.25-1.172.75-1.535.504-.367 1.211-.551 2.121-.551h1.054v-.498c0-.379-.113-.68-.339-.902-.227-.227-.561-.34-1.002-.34-.387 0-.711.098-.973.293-.262.195-.393.432-.393.709h-1.089c0-.317.111-.621.334-.914a2.31 2.31 0 01.914-.703c.386-.172.81-.258 1.271-.258.731 0 1.303.183 1.717.551.414.363.629.865.644 1.506v2.918c0 .582.075 1.044.223 1.388v.094h-1.137zm-1.798-.826a1.9 1.9 0 00.966-.264 1.59 1.59 0 00.662-.685v-1.301h-.849c-1.328 0-1.992.388-1.992 1.166 0 .34.113.605.34.797.226.191.517.287.873.287zm7.476-4.541a3.178 3.178 0 00-.533-.041c-.711 0-1.193.302-1.447.908v4.5h-1.084v-6.34h1.054l.018.733c.355-.567.859-.85 1.512-.85.211 0 .371.027.48.082v1.008zm18.147 1.728c0 1.27-.217 2.213-.651 2.83-.433.618-1.111.926-2.033.926-.91 0-1.584-.301-2.021-.902-.438-.606-.665-1.508-.68-2.707v-1.448c0-1.253.217-2.185.65-2.794.434-.61 1.114-.915 2.039-.915.918 0 1.594.295 2.028.885.433.586.656 1.492.668 2.719v1.406zm-1.084-1.482c0-.918-.129-1.586-.387-2.004-.258-.422-.666-.633-1.225-.633-.554 0-.959.209-1.213.627-.253.418-.384 1.061-.392 1.928v1.734c0 .922.133 1.604.398 2.045.27.438.676.656 1.219.656.535 0 .932-.207 1.189-.621.262-.414.399-1.066.411-1.957v-1.775zm6.035 5.121h-1.09v-7.225l-2.186.803v-.984l3.106-1.166h.17v8.572zm7.887-8.531l2.789 6.961 2.789-6.961h1.459v8.531h-1.125v-3.322l.105-3.586-2.801 6.908h-.861l-2.795-6.891.111 3.569v3.322H630.9v-8.531h1.454zm12.767 8.531c-.062-.125-.113-.348-.152-.668-.504.523-1.106.785-1.805.785-.625 0-1.139-.176-1.541-.527a1.731 1.731 0 01-.598-1.348c0-.66.25-1.172.75-1.535.504-.367 1.211-.551 2.121-.551h1.055v-.498c0-.379-.113-.68-.34-.902-.226-.227-.56-.34-1.002-.34-.386 0-.711.098-.972.293-.262.195-.393.432-.393.709h-1.09c0-.317.112-.621.334-.914.227-.297.532-.531.914-.703a3.097 3.097 0 011.272-.258c.73 0 1.303.183 1.717.551.414.363.629.865.644 1.506v2.918c0 .582.074 1.044.223 1.388v.094h-1.137zm-1.799-.826c.34 0 .662-.088.967-.264.305-.176.525-.404.662-.685v-1.301h-.849c-1.329 0-1.993.388-1.993 1.166 0 .34.114.605.34.797.227.191.518.287.873.287zm7.477-4.541a3.178 3.178 0 00-.533-.041c-.711 0-1.194.302-1.448.908v4.5h-1.084v-6.34h1.055l.018.733c.355-.567.859-.85 1.511-.85.211 0 .371.027.481.082v1.008zm18.146 1.728c0 1.27-.216 2.213-.65 2.83-.434.618-1.111.926-2.033.926-.91 0-1.584-.301-2.022-.902-.437-.606-.664-1.508-.679-2.707v-1.448c0-1.253.216-2.185.65-2.794.434-.61 1.113-.915 2.039-.915.918 0 1.594.295 2.027.885.434.586.657 1.492.668 2.719v1.406zm-1.084-1.482c0-.918-.129-1.586-.386-2.004-.258-.422-.666-.633-1.225-.633-.555 0-.959.209-1.213.627-.254.418-.385 1.061-.392 1.928v1.734c0 .922.132 1.604.398 2.045.269.438.676.656 1.219.656.535 0 .931-.207 1.189-.621.262-.414.399-1.066.41-1.957v-1.775zm6.035 5.121h-1.089v-7.225l-2.186.803v-.984l3.106-1.166h.169v8.572zm7.887-8.531l2.789 6.961 2.789-6.961h1.459v8.531h-1.125v-3.322l.106-3.586L685 168.18h-.861l-2.795-6.891.111 3.569v3.322h-1.125v-8.531h1.453zm12.768 8.531c-.063-.125-.113-.348-.153-.668-.503.523-1.105.785-1.804.785-.625 0-1.139-.176-1.541-.527a1.728 1.728 0 01-.598-1.348c0-.66.25-1.172.75-1.535.504-.367 1.211-.551 2.121-.551h1.055v-.498c0-.379-.113-.68-.34-.902-.227-.227-.561-.34-1.002-.34-.387 0-.711.098-.973.293-.261.195-.392.432-.392.709h-1.09c0-.317.111-.621.334-.914.227-.297.531-.531.914-.703a3.097 3.097 0 011.272-.258c.73 0 1.302.183 1.716.551.414.363.629.865.645 1.506v2.918c0 .582.074 1.044.223 1.388v.094h-1.137zm-1.799-.826c.34 0 .662-.088.967-.264.304-.176.525-.404.662-.685v-1.301h-.85c-1.328 0-1.992.388-1.992 1.166 0 .34.113.605.34.797.226.191.517.287.873.287zm7.477-4.541a3.19 3.19 0 00-.534-.041c-.711 0-1.193.302-1.447.908v4.5h-1.084v-6.34h1.055l.017.733c.356-.567.86-.85 1.512-.85.211 0 .371.027.481.082v1.008zm18.146 1.728c0 1.27-.217 2.213-.65 2.83-.434.618-1.112.926-2.034.926-.91 0-1.584-.301-2.021-.902-.438-.606-.664-1.508-.68-2.707v-1.448c0-1.253.217-2.185.651-2.794.433-.61 1.113-.915 2.039-.915.918 0 1.593.295 2.027.885.434.586.656 1.492.668 2.719v1.406zm-1.084-1.482c0-.918-.129-1.586-.387-2.004-.258-.422-.666-.633-1.224-.633-.555 0-.959.209-1.213.627-.254.418-.385 1.061-.393 1.928v1.734c0 .922.133 1.604.399 2.045.269.438.675.656 1.218.656.536 0 .932-.207 1.19-.621.262-.414.398-1.066.41-1.957v-1.775zm6.035 5.121h-1.09v-7.225l-2.185.803v-.984l3.105-1.166h.17v8.572zm7.887-8.531l2.789 6.961 2.789-6.961h1.459v8.531h-1.125v-3.322l.105-3.586-2.8 6.908h-.862l-2.795-6.891.112 3.569v3.322h-1.125v-8.531h1.453zm12.767 8.531c-.062-.125-.113-.348-.152-.668-.504.523-1.105.785-1.805.785-.625 0-1.138-.176-1.541-.527a1.73 1.73 0 01-.597-1.348c0-.66.25-1.172.75-1.535.504-.367 1.211-.551 2.121-.551h1.055v-.498c0-.379-.114-.68-.34-.902-.227-.227-.561-.34-1.002-.34-.387 0-.711.098-.973.293-.262.195-.392.432-.392.709h-1.09c0-.317.111-.621.334-.914a2.31 2.31 0 01.914-.703c.386-.172.81-.258 1.271-.258.731 0 1.303.183 1.717.551.414.363.629.865.645 1.506v2.918c0 .582.074 1.044.222 1.388v.094h-1.137zm-1.798-.826a1.9 1.9 0 00.966-.264c.305-.176.526-.404.663-.685v-1.301h-.85c-1.328 0-1.992.388-1.992 1.166 0 .34.113.605.34.797.226.191.517.287.873.287zm7.476-4.541a3.178 3.178 0 00-.533-.041c-.711 0-1.193.302-1.447.908v4.5h-1.084v-6.34h1.054l.018.733c.355-.567.859-.85 1.512-.85.211 0 .371.027.48.082v1.008zm18.147 1.728c0 1.27-.217 2.213-.651 2.83-.433.618-1.111.926-2.033.926-.91 0-1.584-.301-2.021-.902-.438-.606-.664-1.508-.68-2.707v-1.448c0-1.253.217-2.185.65-2.794.434-.61 1.114-.915 2.039-.915.918 0 1.594.295 2.028.885.433.586.656 1.492.668 2.719v1.406zm-1.084-1.482c0-.918-.129-1.586-.387-2.004-.258-.422-.666-.633-1.225-.633-.554 0-.959.209-1.213.627-.253.418-.384 1.061-.392 1.928v1.734c0 .922.133 1.604.398 2.045.27.438.676.656 1.219.656.535 0 .932-.207 1.19-.621.261-.414.398-1.066.41-1.957v-1.775zm6.035 5.121h-1.09v-7.225l-2.186.803v-.984l3.106-1.166h.17v8.572zm7.887-8.531l2.789 6.961 2.789-6.961h1.459v8.531h-1.125v-3.322l.105-3.586-2.801 6.908h-.861l-2.795-6.891.111 3.569v3.322h-1.125v-8.531h1.454zm12.767 8.531c-.062-.125-.113-.348-.152-.668-.504.523-1.106.785-1.805.785-.625 0-1.139-.176-1.541-.527a1.731 1.731 0 01-.598-1.348c0-.66.25-1.172.75-1.535.504-.367 1.211-.551 2.122-.551h1.054v-.498c0-.379-.113-.68-.34-.902-.226-.227-.56-.34-1.002-.34-.386 0-.711.098-.972.293-.262.195-.393.432-.393.709h-1.09c0-.317.112-.621.334-.914.227-.297.532-.531.914-.703a3.097 3.097 0 011.272-.258c.73 0 1.303.183 1.717.551.414.363.629.865.644 1.506v2.918c0 .582.074 1.044.223 1.388v.094h-1.137zm-1.799-.826c.34 0 .662-.088.967-.264a1.59 1.59 0 00.662-.685v-1.301h-.849c-1.328 0-1.993.388-1.993 1.166 0 .34.114.605.34.797.227.191.518.287.873.287zm7.477-4.541a3.178 3.178 0 00-.533-.041c-.711 0-1.194.302-1.448.908v4.5h-1.084v-6.34h1.055l.018.733c.355-.567.859-.85 1.511-.85.211 0 .372.027.481.082v1.008z" fill="#BDBDBD"/><path d="M322.938 164.541c0 1.27-.217 2.213-.651 2.83-.433.618-1.111.926-2.033.926-.91 0-1.584-.301-2.022-.902-.437-.606-.664-1.508-.679-2.707v-1.448c0-1.253.217-2.185.65-2.794.434-.61 1.113-.915 2.039-.915.918 0 1.594.295 2.028.885.433.586.656 1.492.668 2.719v1.406zm-1.084-1.482c0-.918-.129-1.586-.387-2.004-.258-.422-.666-.633-1.225-.633-.554 0-.959.209-1.213.627-.254.418-.384 1.061-.392 1.928v1.734c0 .922.133 1.604.398 2.045.27.438.676.656 1.219.656.535 0 .932-.207 1.189-.621.262-.414.399-1.066.411-1.957v-1.775zm6.035 5.121h-1.09v-7.225l-2.186.803v-.984l3.106-1.166h.17v8.572zm7.886-8.531l2.789 6.961 2.79-6.961h1.458v8.531h-1.124v-3.322l.105-3.586-2.801 6.908h-.861l-2.795-6.891.111 3.569v3.322h-1.125v-8.531h1.453zm12.768 8.531c-.063-.125-.113-.348-.152-.668-.504.523-1.106.785-1.805.785-.625 0-1.139-.176-1.541-.527a1.728 1.728 0 01-.598-1.348c0-.66.25-1.172.75-1.535.504-.367 1.211-.551 2.121-.551h1.055v-.498c0-.379-.113-.68-.34-.902-.226-.227-.56-.34-1.002-.34-.386 0-.711.098-.972.293-.262.195-.393.432-.393.709h-1.09c0-.317.112-.621.334-.914.227-.297.531-.531.914-.703a3.097 3.097 0 011.272-.258c.73 0 1.302.183 1.716.551.415.363.629.865.645 1.506v2.918c0 .582.074 1.044.223 1.388v.094h-1.137zm-1.799-.826c.34 0 .662-.088.967-.264.305-.176.525-.404.662-.685v-1.301h-.85c-1.328 0-1.992.388-1.992 1.166 0 .34.114.605.34.797.227.191.518.287.873.287zm7.477-4.541a3.178 3.178 0 00-.533-.041c-.711 0-1.194.302-1.448.908v4.5h-1.084v-6.34h1.055l.018.733c.355-.567.859-.85 1.511-.85.211 0 .371.027.481.082v1.008z" fill="#4F4F4F"/><path d="M30.271 119.18h-1.09v-7.225l-2.185.803v-.984l3.106-1.166h.17v8.572zm12.44-8.531v5.8c-.004.805-.258 1.463-.762 1.975-.5.512-1.18.799-2.039.861l-.299.012c-.933 0-1.677-.252-2.232-.756-.555-.504-.836-1.197-.844-2.08v-5.812h1.113v5.777c0 .617.17 1.098.51 1.441.34.34.824.51 1.453.51.637 0 1.123-.17 1.46-.51.34-.339.51-.818.51-1.435v-5.783h1.13zM47 115.377c-.965-.277-1.668-.617-2.11-1.019a1.969 1.969 0 01-.656-1.5c0-.672.268-1.227.803-1.664.54-.442 1.238-.663 2.098-.663.586 0 1.107.114 1.564.34.461.227.817.539 1.067.938.254.398.38.834.38 1.306h-1.13c0-.515-.164-.919-.493-1.212-.328-.297-.79-.446-1.388-.446-.555 0-.988.123-1.301.369-.309.243-.463.58-.463 1.014 0 .348.147.643.44.885.296.238.798.457 1.505.656.711.199 1.266.42 1.664.662.403.238.7.518.891.838.195.32.293.697.293 1.131 0 .691-.27 1.246-.809 1.664-.539.414-1.26.621-2.162.621a4.035 4.035 0 01-1.64-.334c-.508-.226-.9-.535-1.178-.926a2.262 2.262 0 01-.41-1.33h1.13c0 .516.19.924.57 1.225.382.297.892.445 1.528.445.594 0 1.05-.121 1.366-.363.316-.242.474-.572.474-.99 0-.418-.146-.741-.44-.967-.292-.231-.824-.457-1.593-.68zm4.611 3.803v-8.531h2.409c.742 0 1.398.164 1.968.492.57.328 1.01.795 1.319 1.4.312.606.47 1.301.474 2.086v.545c0 .805-.156 1.51-.468 2.115a3.251 3.251 0 01-1.33 1.395c-.575.324-1.245.49-2.01.498H51.61zm1.125-7.606v6.686h1.184c.867 0 1.54-.27 2.021-.809.485-.539.727-1.306.727-2.302v-.498c0-.969-.228-1.721-.686-2.256-.453-.539-1.097-.813-1.933-.821h-1.313zM32.299 86.18h-5.59v-.78l2.953-3.28c.438-.497.738-.9.902-1.208.168-.312.252-.634.252-.966 0-.446-.134-.811-.404-1.096-.27-.285-.629-.428-1.078-.428-.54 0-.959.154-1.26.463-.297.305-.445.73-.445 1.277h-1.084c0-.785.252-1.42.756-1.904.508-.484 1.185-.727 2.033-.727.793 0 1.42.21 1.88.627.462.415.692.967.692 1.659 0 .84-.535 1.84-1.605 3l-2.285 2.478h4.283v.885zm10.412-8.531v5.8c-.004.805-.258 1.463-.762 1.975-.5.512-1.18.799-2.039.861l-.299.012c-.933 0-1.677-.252-2.232-.756-.555-.504-.836-1.197-.844-2.08V77.65h1.113v5.777c0 .617.17 1.098.51 1.441.34.34.824.51 1.453.51.637 0 1.123-.17 1.46-.51.34-.34.51-.818.51-1.435V77.65h1.13zM47 82.377c-.965-.277-1.668-.617-2.11-1.02a1.967 1.967 0 01-.656-1.5c0-.671.268-1.226.803-1.663.54-.442 1.238-.663 2.098-.663.586 0 1.107.114 1.564.34.461.227.817.54 1.067.938.254.398.38.834.38 1.306h-1.13c0-.515-.164-.92-.493-1.212-.328-.297-.79-.446-1.388-.446-.555 0-.988.123-1.301.37-.309.242-.463.58-.463 1.013 0 .348.147.643.44.885.296.238.798.457 1.505.656.711.2 1.266.42 1.664.662.403.238.7.518.891.838.195.32.293.697.293 1.131 0 .691-.27 1.246-.809 1.664-.539.414-1.26.621-2.162.621a4.04 4.04 0 01-1.64-.334c-.508-.226-.9-.535-1.178-.926a2.264 2.264 0 01-.41-1.33h1.13c0 .516.19.924.57 1.225.382.297.892.445 1.528.445.594 0 1.05-.12 1.366-.363.316-.242.474-.572.474-.99 0-.418-.146-.74-.44-.967-.292-.23-.824-.457-1.593-.68zm4.611 3.803v-8.531h2.409c.742 0 1.398.164 1.968.492a3.31 3.31 0 011.319 1.4c.312.606.47 1.301.474 2.086v.545c0 .805-.156 1.51-.468 2.115a3.254 3.254 0 01-1.33 1.395c-.575.324-1.245.49-2.01.498H51.61zm1.125-7.606v6.686h1.184c.867 0 1.54-.27 2.021-.809.485-.539.727-1.306.727-2.302v-.498c0-.97-.228-1.721-.686-2.256-.453-.54-1.097-.813-1.933-.82h-1.313zM28.285 47.387h.815c.511-.008.914-.143 1.207-.404.293-.262.44-.616.44-1.06 0-1-.499-1.5-1.495-1.5-.469 0-.844.134-1.125.403-.277.266-.416.62-.416 1.061h-1.084c0-.676.246-1.236.738-1.682.496-.449 1.125-.673 1.887-.673.805 0 1.436.212 1.893.638.457.426.685 1.018.685 1.776 0 .37-.121.73-.363 1.078a2.158 2.158 0 01-.979.779c.469.148.83.395 1.084.738.258.344.387.764.387 1.26 0 .766-.25 1.373-.75 1.822-.5.45-1.15.674-1.951.674-.801 0-1.453-.217-1.957-.65-.5-.434-.75-1.006-.75-1.717h1.09c0 .45.146.809.44 1.078.292.27.685.404 1.177.404.523 0 .924-.136 1.201-.41.277-.273.416-.666.416-1.178 0-.496-.152-.877-.457-1.142-.305-.266-.744-.402-1.318-.41h-.815v-.885zm14.426-3.738v5.8c-.004.805-.258 1.463-.762 1.975-.5.512-1.18.799-2.039.861l-.299.012c-.933 0-1.677-.252-2.232-.756-.555-.504-.836-1.197-.844-2.08V43.65h1.113v5.777c0 .617.17 1.098.51 1.441.34.34.824.51 1.453.51.637 0 1.123-.17 1.46-.51.34-.34.51-.818.51-1.435V43.65h1.13zM47 48.377c-.965-.277-1.668-.617-2.11-1.02a1.967 1.967 0 01-.656-1.5c0-.671.268-1.226.803-1.663.54-.442 1.238-.663 2.098-.663.586 0 1.107.114 1.564.34.461.227.817.54 1.067.938.254.398.38.834.38 1.306h-1.13c0-.515-.164-.92-.493-1.212-.328-.297-.79-.446-1.388-.446-.555 0-.988.123-1.301.37-.309.242-.463.58-.463 1.013 0 .348.147.643.44.885.296.238.798.457 1.505.656.711.2 1.266.42 1.664.662.403.239.7.518.891.838.195.32.293.697.293 1.131 0 .691-.27 1.246-.809 1.664-.539.414-1.26.621-2.162.621a4.041 4.041 0 01-1.64-.334c-.508-.226-.9-.535-1.178-.926a2.264 2.264 0 01-.41-1.33h1.13c0 .516.19.924.57 1.225.382.297.892.445 1.528.445.594 0 1.05-.12 1.366-.363.316-.242.474-.572.474-.99 0-.418-.146-.74-.44-.967-.292-.23-.824-.457-1.593-.68zm4.611 3.803v-8.531h2.409c.742 0 1.398.164 1.968.492a3.31 3.31 0 011.319 1.4c.312.606.47 1.301.474 2.086v.545c0 .805-.156 1.51-.468 2.115a3.254 3.254 0 01-1.33 1.395c-.575.324-1.245.49-2.01.498H51.61zm1.125-7.605v6.685h1.184c.867 0 1.54-.27 2.021-.809.485-.539.727-1.306.727-2.302v-.498c0-.97-.228-1.721-.686-2.256-.453-.54-1.097-.813-1.933-.82h-1.313zm-21.451-28.26h1.184v.884h-1.184v1.98h-1.09V17.2h-3.884v-.638l3.82-5.912h1.154v5.666zm-3.744 0h2.654V12.13l-.129.235-2.525 3.949zm15.17-5.666v5.8c-.004.805-.258 1.463-.762 1.975-.5.512-1.18.799-2.039.861l-.299.012c-.933 0-1.677-.252-2.232-.756-.555-.504-.836-1.197-.844-2.08V10.65h1.113v5.777c0 .617.17 1.098.51 1.441.34.34.824.51 1.453.51.637 0 1.123-.17 1.46-.51.34-.34.51-.818.51-1.435V10.65h1.13zM47 15.377c-.965-.277-1.668-.617-2.11-1.02a1.967 1.967 0 01-.656-1.5c0-.671.268-1.226.803-1.663.54-.442 1.238-.663 2.098-.663.586 0 1.107.114 1.564.34.461.227.817.54 1.067.938.254.398.38.834.38 1.307h-1.13c0-.516-.164-.92-.493-1.213-.328-.297-.79-.446-1.388-.446-.555 0-.988.123-1.301.37-.309.242-.463.58-.463 1.013 0 .348.147.643.44.885.296.238.798.457 1.505.656.711.2 1.266.42 1.664.662.403.239.7.518.891.838.195.32.293.697.293 1.131 0 .691-.27 1.246-.809 1.664-.539.414-1.26.621-2.162.621a4.041 4.041 0 01-1.64-.334c-.508-.226-.9-.535-1.178-.926a2.264 2.264 0 01-.41-1.33h1.13c0 .516.19.924.57 1.225.382.297.892.445 1.528.445.594 0 1.05-.12 1.366-.363.316-.242.474-.572.474-.99 0-.418-.146-.74-.44-.967-.292-.23-.824-.457-1.593-.68zm4.611 3.803v-8.531h2.409c.742 0 1.398.164 1.968.492a3.31 3.31 0 011.319 1.4c.312.606.47 1.301.474 2.086v.545c0 .805-.156 1.51-.468 2.115a3.254 3.254 0 01-1.33 1.395c-.575.324-1.245.49-2.01.498H51.61zm1.125-7.605v6.685h1.184c.867 0 1.54-.27 2.021-.809.485-.539.727-1.306.727-2.302v-.498c0-.97-.228-1.721-.686-2.256-.453-.54-1.097-.813-1.933-.82h-1.313zm763.323 137.966c0 1.27-.217 2.213-.651 2.83-.433.618-1.111.926-2.033.926-.91 0-1.584-.301-2.021-.902-.438-.606-.665-1.508-.68-2.707v-1.448c0-1.253.217-2.185.65-2.794.434-.61 1.114-.915 2.039-.915.918 0 1.594.295 2.028.885.433.586.656 1.492.668 2.719v1.406zm-1.084-1.482c0-.918-.129-1.586-.387-2.004-.258-.422-.666-.633-1.225-.633-.554 0-.959.209-1.213.627-.254.418-.384 1.061-.392 1.928v1.734c0 .922.133 1.604.398 2.045.27.438.676.656 1.219.656.535 0 .932-.207 1.189-.621.262-.414.399-1.066.411-1.957v-1.775zm11.736-3.41v5.8c-.004.805-.258 1.463-.762 1.975-.5.512-1.179.799-2.039.861l-.299.012c-.933 0-1.677-.252-2.232-.756-.555-.504-.836-1.197-.844-2.08v-5.812h1.113v5.777c0 .617.17 1.098.51 1.441.34.34.824.51 1.453.51.637 0 1.123-.17 1.459-.51.34-.339.51-.818.51-1.435v-5.783h1.131zm4.289 4.728c-.965-.277-1.668-.617-2.109-1.019a1.968 1.968 0 01-.657-1.5c0-.672.268-1.227.803-1.664.539-.442 1.238-.663 2.098-.663.586 0 1.107.114 1.564.34.461.227.817.539 1.067.938.254.398.38.834.38 1.306h-1.13c0-.515-.164-.919-.493-1.212-.328-.297-.791-.446-1.388-.446-.555 0-.989.123-1.301.369-.309.243-.463.58-.463 1.014 0 .348.147.643.44.885.296.238.798.457 1.505.656.711.199 1.266.42 1.664.662.403.238.7.518.891.838.195.32.293.697.293 1.131 0 .691-.269 1.246-.809 1.664-.539.414-1.259.621-2.162.621a4.032 4.032 0 01-1.64-.334c-.508-.226-.901-.535-1.178-.926a2.265 2.265 0 01-.41-1.33h1.131c0 .516.189.924.568 1.225.383.297.893.445 1.529.445.594 0 1.049-.121 1.366-.363.316-.242.474-.572.474-.99 0-.418-.146-.741-.439-.967-.293-.231-.824-.457-1.594-.68zm4.611 3.803v-8.531h2.409c.742 0 1.398.164 1.968.492.571.328 1.01.795 1.319 1.4.312.606.47 1.301.474 2.086v.545c0 .805-.156 1.51-.469 2.115a3.242 3.242 0 01-1.33 1.395c-.574.324-1.244.49-2.009.498h-2.362zm1.125-7.606v6.686h1.184c.867 0 1.541-.27 2.021-.809.485-.539.727-1.306.727-2.302v-.498c0-.969-.229-1.721-.686-2.256-.453-.539-1.097-.813-1.933-.821h-1.313zm-22.465-26.394h-1.089v-7.225l-2.186.803v-.984l3.106-1.166h.169v8.572zm12.44-8.531v5.8c-.004.805-.258 1.463-.762 1.975-.5.512-1.179.799-2.039.861l-.299.012c-.933 0-1.677-.252-2.232-.756-.555-.504-.836-1.197-.844-2.08v-5.812h1.113v5.777c0 .617.17 1.098.51 1.441.34.34.824.51 1.453.51.637 0 1.123-.17 1.459-.51.34-.339.51-.818.51-1.435v-5.783h1.131zm4.289 4.728c-.965-.277-1.668-.617-2.109-1.019a1.968 1.968 0 01-.657-1.5c0-.672.268-1.227.803-1.664.539-.442 1.238-.663 2.098-.663.586 0 1.107.114 1.564.34.461.227.817.539 1.067.938.254.398.38.834.38 1.306h-1.13c0-.515-.164-.919-.493-1.212-.328-.297-.791-.446-1.388-.446-.555 0-.989.123-1.301.369-.309.243-.463.58-.463 1.014 0 .348.147.643.44.885.296.238.798.457 1.505.656.711.199 1.266.42 1.664.662.403.238.7.518.891.838.195.32.293.697.293 1.131 0 .691-.269 1.246-.809 1.664-.539.414-1.259.621-2.162.621a4.032 4.032 0 01-1.64-.334c-.508-.226-.901-.535-1.178-.926a2.265 2.265 0 01-.41-1.33h1.131c0 .516.189.924.568 1.225.383.297.893.445 1.529.445.594 0 1.049-.121 1.366-.363.316-.242.474-.572.474-.99 0-.418-.146-.741-.439-.967-.293-.231-.824-.457-1.594-.68zm4.611 3.803v-8.531h2.409c.742 0 1.398.164 1.968.492.571.328 1.01.795 1.319 1.4.312.606.47 1.301.474 2.086v.545c0 .805-.156 1.51-.469 2.115a3.242 3.242 0 01-1.33 1.395c-.574.324-1.244.49-2.009.498h-2.362zm1.125-7.606v6.686h1.184c.867 0 1.541-.27 2.021-.809.485-.539.727-1.306.727-2.302v-.498c0-.969-.229-1.721-.686-2.256-.453-.539-1.097-.813-1.933-.821h-1.313zM816.299 86.18h-5.59v-.78l2.953-3.28c.438-.497.738-.9.902-1.208.168-.312.252-.634.252-.966 0-.446-.134-.811-.404-1.096-.269-.285-.629-.428-1.078-.428-.539 0-.959.154-1.26.463-.297.305-.445.73-.445 1.277h-1.084c0-.785.252-1.42.756-1.904.508-.484 1.185-.727 2.033-.727.793 0 1.42.21 1.881.627.461.415.691.967.691 1.659 0 .84-.535 1.84-1.605 3l-2.285 2.478h4.283v.885zm10.412-8.531v5.8c-.004.805-.258 1.463-.762 1.975-.5.512-1.179.799-2.039.861l-.299.012c-.933 0-1.677-.252-2.232-.756-.555-.504-.836-1.197-.844-2.08V77.65h1.113v5.777c0 .617.17 1.098.51 1.441.34.34.824.51 1.453.51.637 0 1.123-.17 1.459-.51.34-.34.51-.818.51-1.435V77.65h1.131zM831 82.377c-.965-.277-1.668-.617-2.109-1.02a1.966 1.966 0 01-.657-1.5c0-.671.268-1.226.803-1.663.539-.442 1.238-.663 2.098-.663.586 0 1.107.114 1.564.34.461.227.817.54 1.067.938.254.398.38.834.38 1.306h-1.13c0-.515-.164-.92-.493-1.212-.328-.297-.791-.446-1.388-.446-.555 0-.989.123-1.301.37-.309.242-.463.58-.463 1.013 0 .348.147.643.44.885.296.238.798.457 1.505.656.711.2 1.266.42 1.664.662.403.238.7.518.891.838.195.32.293.697.293 1.131 0 .691-.269 1.246-.809 1.664-.539.414-1.259.621-2.162.621a4.037 4.037 0 01-1.64-.334c-.508-.226-.901-.535-1.178-.926a2.266 2.266 0 01-.41-1.33h1.131c0 .516.189.924.568 1.225.383.297.893.445 1.529.445.594 0 1.049-.12 1.366-.363.316-.242.474-.572.474-.99 0-.418-.146-.74-.439-.967-.293-.23-.824-.457-1.594-.68zm4.611 3.803v-8.531h2.409c.742 0 1.398.164 1.968.492a3.31 3.31 0 011.319 1.4c.312.606.47 1.301.474 2.086v.545c0 .805-.156 1.51-.469 2.115a3.245 3.245 0 01-1.33 1.395c-.574.324-1.244.49-2.009.498h-2.362zm1.125-7.606v6.686h1.184c.867 0 1.541-.27 2.021-.809.485-.539.727-1.306.727-2.302v-.498c0-.97-.229-1.721-.686-2.256-.453-.54-1.097-.813-1.933-.82h-1.313zm-24.451-31.187h.815c.511-.008.914-.143 1.207-.404.293-.262.439-.616.439-1.06 0-1-.498-1.5-1.494-1.5-.469 0-.844.134-1.125.403-.277.266-.416.62-.416 1.061h-1.084c0-.676.246-1.236.738-1.682.496-.449 1.125-.673 1.887-.673.805 0 1.436.212 1.893.638.457.426.685 1.018.685 1.776 0 .37-.121.73-.363 1.078a2.157 2.157 0 01-.979.779c.469.148.83.395 1.084.738.258.344.387.764.387 1.26 0 .766-.25 1.373-.75 1.822-.5.45-1.15.674-1.951.674-.801 0-1.453-.217-1.957-.65-.5-.434-.75-1.006-.75-1.717h1.09c0 .45.146.809.439 1.078.293.27.686.404 1.178.404.523 0 .924-.136 1.201-.41.277-.273.416-.666.416-1.178 0-.496-.152-.877-.457-1.142-.305-.266-.744-.402-1.318-.41h-.815v-.885zm14.426-3.738v5.8c-.004.805-.258 1.463-.762 1.975-.5.512-1.179.799-2.039.861l-.299.012c-.933 0-1.677-.252-2.232-.756-.555-.504-.836-1.197-.844-2.08V43.65h1.113v5.777c0 .617.17 1.098.51 1.441.34.34.824.51 1.453.51.637 0 1.123-.17 1.459-.51.34-.34.51-.818.51-1.435V43.65h1.131zM831 48.377c-.965-.277-1.668-.617-2.109-1.02a1.966 1.966 0 01-.657-1.5c0-.671.268-1.226.803-1.663.539-.442 1.238-.663 2.098-.663.586 0 1.107.114 1.564.34.461.227.817.54 1.067.938.254.398.38.834.38 1.306h-1.13c0-.515-.164-.92-.493-1.212-.328-.297-.791-.446-1.388-.446-.555 0-.989.123-1.301.37-.309.242-.463.58-.463 1.013 0 .348.147.643.44.885.296.238.798.457 1.505.656.711.2 1.266.42 1.664.662.403.239.7.518.891.838.195.32.293.697.293 1.131 0 .691-.269 1.246-.809 1.664-.539.414-1.259.621-2.162.621a4.039 4.039 0 01-1.64-.334c-.508-.226-.901-.535-1.178-.926a2.266 2.266 0 01-.41-1.33h1.131c0 .516.189.924.568 1.225.383.297.893.445 1.529.445.594 0 1.049-.12 1.366-.363.316-.242.474-.572.474-.99 0-.418-.146-.74-.439-.967-.293-.23-.824-.457-1.594-.68zm4.611 3.803v-8.531h2.409c.742 0 1.398.164 1.968.492a3.31 3.31 0 011.319 1.4c.312.606.47 1.301.474 2.086v.545c0 .805-.156 1.51-.469 2.115a3.245 3.245 0 01-1.33 1.395c-.574.324-1.244.49-2.009.498h-2.362zm1.125-7.605v6.685h1.184c.867 0 1.541-.27 2.021-.809.485-.539.727-1.306.727-2.302v-.498c0-.97-.229-1.721-.686-2.256-.453-.54-1.097-.813-1.933-.82h-1.313zm-21.451-28.26h1.184v.884h-1.184v1.98h-1.09V17.2h-3.884v-.638l3.82-5.912h1.154v5.666zm-3.744 0h2.654V12.13l-.129.235-2.525 3.949zm15.17-5.666v5.8c-.004.805-.258 1.463-.762 1.975-.5.512-1.179.799-2.039.861l-.299.012c-.933 0-1.677-.252-2.232-.756-.555-.504-.836-1.197-.844-2.08V10.65h1.113v5.777c0 .617.17 1.098.51 1.441.34.34.824.51 1.453.51.637 0 1.123-.17 1.459-.51.34-.34.51-.818.51-1.435V10.65h1.131zM831 15.377c-.965-.277-1.668-.617-2.109-1.02a1.966 1.966 0 01-.657-1.5c0-.671.268-1.226.803-1.663.539-.442 1.238-.663 2.098-.663.586 0 1.107.114 1.564.34.461.227.817.54 1.067.938.254.398.38.834.38 1.307h-1.13c0-.516-.164-.92-.493-1.213-.328-.297-.791-.446-1.388-.446-.555 0-.989.123-1.301.37-.309.242-.463.58-.463 1.013 0 .348.147.643.44.885.296.238.798.457 1.505.656.711.2 1.266.42 1.664.662.403.239.7.518.891.838.195.32.293.697.293 1.131 0 .691-.269 1.246-.809 1.664-.539.414-1.259.621-2.162.621a4.039 4.039 0 01-1.64-.334c-.508-.226-.901-.535-1.178-.926a2.266 2.266 0 01-.41-1.33h1.131c0 .516.189.924.568 1.225.383.297.893.445 1.529.445.594 0 1.049-.12 1.366-.363.316-.242.474-.572.474-.99 0-.418-.146-.74-.439-.967-.293-.23-.824-.457-1.594-.68zm4.611 3.803v-8.531h2.409c.742 0 1.398.164 1.968.492a3.31 3.31 0 011.319 1.4c.312.606.47 1.301.474 2.086v.545c0 .805-.156 1.51-.469 2.115a3.245 3.245 0 01-1.33 1.395c-.574.324-1.244.49-2.009.498h-2.362zm1.125-7.605v6.685h1.184c.867 0 1.541-.27 2.021-.809.485-.539.727-1.306.727-2.302v-.498c0-.97-.229-1.721-.686-2.256-.453-.54-1.097-.813-1.933-.82h-1.313zM7.549 96.99v2.004H11v1.131H2.469v-2.824c0-.961.219-1.7.656-2.215.438-.52 1.074-.78 1.91-.78.531 0 .994.145 1.389.434.394.285.69.684.885 1.196l3.62-2.004H11v1.207L7.549 96.99zm-.92 2.004v-1.728c0-.559-.145-1.002-.434-1.33-.289-.333-.675-.499-1.16-.499-.527 0-.931.159-1.213.475-.281.313-.424.766-.427 1.36v1.722h3.234zm4.488-8.73c0 .859-.281 1.558-.844 2.097-.566.54-1.322.809-2.267.809h-.2c-.628 0-1.189-.12-1.681-.358a2.814 2.814 0 01-1.16-1.007 2.535 2.535 0 01-.422-1.407c0-.824.271-1.464.814-1.921.543-.458 1.32-.686 2.332-.686h.452v4.295c.625-.016 1.13-.197 1.517-.545.383-.352.574-.797.574-1.336 0-.383-.078-.707-.234-.973a2.444 2.444 0 00-.621-.697l.516-.662c.816.531 1.224 1.328 1.224 2.39zm-5.683.134c0 .438.16.805.48 1.102.316.297.762.48 1.336.55v-3.175h-.082c-.55.031-.977.18-1.277.445-.305.266-.457.625-.457 1.078zm4.072-9.48L4.66 79.699v-1.084L11 80.461v.879l-4.805 1.54L11 84.38v.88L4.66 87.1v-1.078l4.746-1.249-4.746-1.476v-.873l4.846-1.506zM11 73.594c-.125.062-.348.113-.668.152.523.504.785 1.106.785 1.805 0 .625-.176 1.138-.527 1.54a1.728 1.728 0 01-1.348.599c-.66 0-1.172-.25-1.535-.75-.367-.504-.55-1.212-.55-2.122v-1.054h-.499c-.379 0-.68.113-.902.34-.227.226-.34.56-.34 1.002 0 .386.098.71.293.972.195.262.432.393.709.393v1.09c-.316 0-.621-.112-.914-.334a2.316 2.316 0 01-.703-.915 3.095 3.095 0 01-.258-1.271c0-.73.184-1.303.55-1.717.364-.414.866-.629 1.507-.644h2.918c.582 0 1.044-.075 1.388-.223H11v1.137zm-.826 1.799c0-.34-.088-.662-.264-.967a1.595 1.595 0 00-.685-.662H7.924v.85c0 1.327.388 1.992 1.166 1.992.34 0 .605-.114.797-.34.191-.227.287-.518.287-.873zm-4.541-7.477a3.25 3.25 0 00-.041.533c0 .711.303 1.194.908 1.448H11v1.084H4.66v-1.055l.733-.018c-.567-.355-.85-.86-.85-1.511 0-.212.027-.372.082-.481h1.008zm2.144-.621c-.972 0-1.754-.23-2.343-.692-.594-.46-.891-1.064-.891-1.81 0-.742.254-1.33.762-1.764H2v-1.084h9v.996l-.68.053c.532.434.797 1.037.797 1.81 0 .735-.3 1.335-.902 1.8-.602.46-1.387.69-2.356.69h-.082zM7.9 66.21c.72 0 1.282-.148 1.688-.445.406-.297.61-.707.61-1.23 0-.688-.31-1.19-.927-1.507H6.36c-.597.324-.896.823-.896 1.494 0 .532.205.946.615 1.243.41.296 1.018.445 1.822.445zm1.418-9.645a.79.79 0 00-.68.334c-.163.22-.304.604-.421 1.155-.117.547-.258.982-.422 1.306-.164.32-.36.559-.586.715a1.415 1.415 0 01-.809.229c-.52 0-.959-.22-1.318-.657-.36-.441-.539-1.004-.539-1.687 0-.719.186-1.3.557-1.746a1.76 1.76 0 011.423-.674v1.09c-.296 0-.552.127-.767.38-.215.25-.322.567-.322.95 0 .395.086.703.257.926a.811.811 0 00.674.334.658.658 0 00.592-.31c.133-.208.26-.58.38-1.12.122-.543.267-.982.434-1.318.168-.336.372-.584.61-.745.234-.163.521-.246.861-.246a1.63 1.63 0 011.365.68c.34.453.51 1.041.51 1.764 0 .508-.09.957-.27 1.347a2.205 2.205 0 01-.75.92 1.84 1.84 0 01-1.048.329v-1.084c.363-.02.652-.165.867-.434.211-.273.316-.633.316-1.078 0-.41-.082-.739-.246-.985-.168-.25-.39-.375-.668-.375z" fill="#BDBDBD"/><path d="M323.92 193.877h-1.4V197h-1.758v-8.531h3.17c1.007 0 1.785.224 2.332.674.547.449.82 1.084.82 1.904 0 .582-.127 1.068-.381 1.459-.25.387-.631.695-1.142.926l1.845 3.486V197h-1.886l-1.6-3.123zm-1.4-1.424h1.418c.441 0 .783-.111 1.025-.334.242-.226.363-.537.363-.931 0-.403-.115-.719-.346-.95-.226-.23-.576-.345-1.048-.345h-1.412v2.56zm8.712 4.664c-.929 0-1.687-.285-2.273-.855-.582-.571-.873-1.33-.873-2.28v-.164c0-.636.123-1.205.369-1.705.246-.504.594-.89 1.043-1.16a2.94 2.94 0 011.547-.41c.867 0 1.549.273 2.045.82.5.547.75 1.323.75 2.326v.692h-4.037c.054.414.218.746.492.996.277.25.627.375 1.049.375.652 0 1.162-.236 1.529-.709l.832.932c-.254.359-.598.64-1.031.843-.434.2-.914.299-1.442.299zm-.193-5.203c-.336 0-.609.113-.82.34-.207.226-.34.551-.399.973h2.356v-.135c-.008-.375-.11-.664-.305-.867-.195-.207-.473-.311-.832-.311zm9.281 2.783l.832-4.037h1.635L341.17 197h-1.418l-1.201-3.99-1.201 3.99h-1.412l-1.618-6.34h1.635l.826 4.031 1.16-4.031h1.225l1.154 4.037zm6.985 2.303a1.879 1.879 0 01-.17-.568c-.41.457-.944.685-1.6.685-.621 0-1.137-.18-1.547-.539a1.736 1.736 0 01-.609-1.359c0-.672.248-1.188.744-1.547.5-.359 1.221-.541 2.162-.545h.779v-.363c0-.293-.076-.528-.228-.703-.148-.176-.385-.264-.709-.264-.285 0-.51.068-.674.205-.16.137-.24.324-.24.562h-1.693c0-.367.113-.707.339-1.019.227-.313.547-.557.961-.733a3.481 3.481 0 011.395-.269c.781 0 1.4.197 1.857.592.461.39.692.941.692 1.652v2.748c.004.602.088 1.057.252 1.365v.1h-1.711zm-1.401-1.178c.25 0 .481-.054.692-.164.211-.113.367-.263.468-.451v-1.09h-.632c-.848 0-1.299.293-1.354.879l-.006.1c0 .211.074.384.223.521.148.137.351.205.609.205zm7.723-3.574a4.657 4.657 0 00-.609-.047c-.641 0-1.061.217-1.26.651V197h-1.694v-6.34h1.6l.047.756c.34-.582.81-.873 1.412-.873.188 0 .363.025.527.076l-.023 1.629zm.439 1.535c0-.988.221-1.775.663-2.361.445-.586 1.052-.879 1.822-.879.617 0 1.127.23 1.529.691V188h1.699v9h-1.529l-.082-.674c-.422.528-.965.791-1.629.791-.746 0-1.346-.293-1.799-.879-.449-.59-.674-1.408-.674-2.455zm1.694.123c0 .594.103 1.049.31 1.365.207.317.508.475.903.475.523 0 .892-.221 1.107-.662v-2.502c-.211-.441-.576-.662-1.096-.662-.816 0-1.224.662-1.224 1.986zm8.765 1.342c0-.207-.103-.369-.31-.486-.203-.121-.531-.229-.985-.323-1.507-.316-2.261-.957-2.261-1.921 0-.563.232-1.032.697-1.407.469-.379 1.08-.568 1.834-.568.805 0 1.447.189 1.928.568.484.379.726.871.726 1.477h-1.693a.81.81 0 00-.234-.598c-.157-.16-.401-.24-.733-.24-.285 0-.506.064-.662.193a.611.611 0 00-.234.493c0 .187.088.339.263.457.18.113.481.212.903.298.422.082.777.176 1.066.282.895.328 1.342.896 1.342 1.705 0 .578-.248 1.047-.744 1.406-.496.355-1.137.533-1.922.533a3.412 3.412 0 01-1.418-.281 2.406 2.406 0 01-.967-.779 1.827 1.827 0 01-.351-1.073h1.605c.016.301.127.532.334.692.207.16.484.24.832.24.324 0 .568-.061.732-.182a.58.58 0 00.252-.486z" fill="#4F4F4F"/><rect x="307" y="190" width="7" height="7" rx="3.5" fill="url(#paint0_linear)"/><path d="M405.762 197v-8.531h2.988c1.035 0 1.82.199 2.355.597.536.395.803.975.803 1.741 0 .418-.107.787-.322 1.107a1.868 1.868 0 01-.897.697c.438.11.782.33 1.032.662.254.332.381.739.381 1.219 0 .82-.262 1.442-.786 1.863-.523.422-1.269.637-2.238.645h-3.316zm1.758-3.715v2.303h1.505c.414 0 .737-.098.967-.293.235-.199.352-.473.352-.82 0-.782-.405-1.178-1.213-1.19h-1.611zm0-1.242h1.3c.887-.016 1.33-.369 1.33-1.061 0-.386-.113-.664-.339-.832-.223-.171-.577-.257-1.061-.257h-1.23v2.15zm9.468 4.957a1.908 1.908 0 01-.17-.568c-.41.457-.943.685-1.599.685-.621 0-1.137-.18-1.547-.539a1.737 1.737 0 01-.61-1.359c0-.672.249-1.188.745-1.547.5-.359 1.22-.541 2.162-.545h.779v-.363c0-.293-.076-.528-.228-.703-.149-.176-.385-.264-.709-.264-.286 0-.51.068-.674.205a.701.701 0 00-.241.562h-1.693c0-.367.113-.707.34-1.019.227-.313.547-.557.961-.733a3.48 3.48 0 011.394-.269c.782 0 1.401.197 1.858.592.461.39.691.941.691 1.652v2.748c.004.602.088 1.057.252 1.365v.1h-1.711zm-1.4-1.178c.25 0 .48-.054.691-.164.211-.113.367-.263.469-.451v-1.09h-.633c-.847 0-1.299.293-1.353.879l-.006.1c0 .211.074.384.223.521.148.137.351.205.609.205zm5.947 1.178h-1.699v-9h1.699v9zm5.074 0a1.908 1.908 0 01-.17-.568c-.41.457-.943.685-1.599.685-.621 0-1.137-.18-1.547-.539a1.736 1.736 0 01-.609-1.359c0-.672.248-1.188.744-1.547.5-.359 1.22-.541 2.162-.545h.779v-.363c0-.293-.076-.528-.228-.703-.149-.176-.385-.264-.709-.264-.286 0-.51.068-.674.205-.16.137-.24.324-.24.562h-1.694c0-.367.114-.707.34-1.019.227-.313.547-.557.961-.733a3.481 3.481 0 011.395-.269c.781 0 1.4.197 1.857.592.461.39.691.941.691 1.652v2.748c.004.602.088 1.057.252 1.365v.1h-1.711zm-1.4-1.178c.25 0 .48-.054.691-.164.211-.113.368-.263.469-.451v-1.09h-.633c-.847 0-1.298.293-1.353.879l-.006.1c0 .211.074.384.223.521.148.137.351.205.609.205zm5.719-5.162l.052.733c.454-.567 1.061-.85 1.823-.85.672 0 1.172.197 1.5.592.328.394.496.984.504 1.769V197h-1.694v-4.055c0-.359-.078-.619-.234-.779-.156-.164-.416-.246-.779-.246-.477 0-.834.203-1.073.609V197h-1.693v-6.34h1.594zm7.804 5.092c.313 0 .567-.086.762-.258a.905.905 0 00.305-.685h1.588a2.182 2.182 0 01-.352 1.183c-.23.356-.547.633-.949.832-.398.196-.84.293-1.324.293-.907 0-1.621-.287-2.145-.861-.523-.578-.785-1.375-.785-2.391v-.111c0-.977.26-1.756.779-2.338.52-.582 1.233-.873 2.139-.873.793 0 1.428.227 1.904.68.481.449.725 1.048.733 1.798h-1.588c-.008-.328-.11-.593-.305-.796-.195-.207-.453-.311-.773-.311-.395 0-.694.145-.897.434-.199.285-.299.75-.299 1.394v.176c0 .652.1 1.121.299 1.406.199.285.502.428.908.428zm6.539 1.365c-.929 0-1.687-.285-2.273-.855-.582-.571-.873-1.33-.873-2.28v-.164c0-.636.123-1.205.369-1.705.246-.504.594-.89 1.043-1.16a2.94 2.94 0 011.547-.41c.867 0 1.549.273 2.045.82.5.547.75 1.323.75 2.326v.692h-4.037c.054.414.219.746.492.996.277.25.627.375 1.049.375.652 0 1.162-.236 1.529-.709l.832.932c-.254.359-.598.64-1.031.843-.434.2-.914.299-1.442.299zm-.193-5.203c-.336 0-.609.113-.82.34-.207.226-.34.551-.399.973h2.356v-.135c-.008-.375-.11-.664-.305-.867-.195-.207-.473-.311-.832-.311z" fill="#4F4F4F"/><rect x="392" y="190" width="7" height="7" rx="3.5" fill="#6FCF97"/><path d="M490.059 188.469l2.191 6.187 2.18-6.187h2.308V197h-1.763v-2.332l.175-4.025-2.302 6.357h-1.207l-2.297-6.352.176 4.02V197h-1.758v-8.531h2.297zM501.836 197a1.879 1.879 0 01-.17-.568c-.41.457-.943.685-1.6.685-.621 0-1.136-.18-1.546-.539a1.734 1.734 0 01-.61-1.359c0-.672.248-1.188.744-1.547.5-.359 1.221-.541 2.162-.545h.78v-.363c0-.293-.076-.528-.229-.703-.148-.176-.385-.264-.709-.264-.285 0-.51.068-.674.205-.16.137-.24.324-.24.562h-1.693c0-.367.113-.707.34-1.019.226-.313.546-.557.961-.733a3.476 3.476 0 011.394-.269c.781 0 1.4.197 1.858.592.46.39.691.941.691 1.652v2.748c.004.602.088 1.057.252 1.365v.1h-1.711zm-1.4-1.178c.25 0 .48-.054.691-.164.211-.113.367-.263.469-.451v-1.09h-.633c-.848 0-1.299.293-1.354.879l-.005.1c0 .211.074.384.222.521.149.137.352.205.61.205zm5.947 1.178h-1.699v-6.34h1.699V197zm-1.799-7.98c0-.254.084-.463.252-.627.172-.164.404-.247.697-.247.289 0 .52.083.692.247a.831.831 0 01.257.627.825.825 0 01-.263.632c-.172.164-.401.246-.686.246-.285 0-.515-.082-.691-.246a.835.835 0 01-.258-.632zm4.758 1.64l.053.733c.453-.567 1.06-.85 1.822-.85.672 0 1.172.197 1.5.592.328.394.496.984.504 1.769V197h-1.694v-4.055c0-.359-.078-.619-.234-.779-.156-.164-.416-.246-.779-.246-.477 0-.834.203-1.073.609V197h-1.693v-6.34h1.594zm7.195-1.558v1.558h1.084v1.242h-1.084v3.164c0 .235.045.403.135.504.09.102.262.153.516.153.187 0 .353-.014.498-.041v1.283a3.506 3.506 0 01-1.026.152c-1.187 0-1.793-.599-1.816-1.799v-3.416h-.926v-1.242h.926v-1.558h1.693zm4.945 8.015c-.929 0-1.687-.285-2.273-.855-.582-.571-.873-1.33-.873-2.28v-.164c0-.636.123-1.205.369-1.705.246-.504.594-.89 1.043-1.16a2.94 2.94 0 011.547-.41c.867 0 1.549.273 2.045.82.5.547.75 1.323.75 2.326v.692h-4.037c.054.414.218.746.492.996.277.25.627.375 1.049.375.652 0 1.162-.236 1.529-.709l.832.932c-.254.359-.598.64-1.031.843-.434.2-.914.299-1.442.299zm-.193-5.203c-.336 0-.609.113-.82.34-.207.226-.34.551-.399.973h2.356v-.135c-.008-.375-.11-.664-.305-.867-.195-.207-.473-.311-.832-.311zm5.326-1.254l.053.733c.453-.567 1.061-.85 1.822-.85.672 0 1.172.197 1.5.592.328.394.496.984.504 1.769V197h-1.693v-4.055c0-.359-.078-.619-.235-.779-.156-.164-.416-.246-.779-.246-.476 0-.834.203-1.072.609V197h-1.694v-6.34h1.594zm8.842 6.34a1.879 1.879 0 01-.17-.568c-.41.457-.943.685-1.599.685-.622 0-1.137-.18-1.547-.539a1.734 1.734 0 01-.61-1.359c0-.672.248-1.188.744-1.547.5-.359 1.221-.541 2.163-.545h.779v-.363c0-.293-.076-.528-.229-.703-.148-.176-.384-.264-.709-.264-.285 0-.509.068-.674.205-.16.137-.24.324-.24.562h-1.693c0-.367.113-.707.34-1.019.226-.313.547-.557.961-.733a3.48 3.48 0 011.394-.269c.781 0 1.401.197 1.858.592.461.39.691.941.691 1.652v2.748c.004.602.088 1.057.252 1.365v.1h-1.711zm-1.4-1.178c.25 0 .48-.054.691-.164.211-.113.367-.263.469-.451v-1.09h-.633c-.848 0-1.299.293-1.354.879l-.005.1c0 .211.074.384.222.521.149.137.352.205.61.205zm5.718-5.162l.053.733c.453-.567 1.061-.85 1.822-.85.672 0 1.172.197 1.5.592.329.394.496.984.504 1.769V197h-1.693v-4.055c0-.359-.078-.619-.234-.779-.157-.164-.416-.246-.78-.246-.476 0-.834.203-1.072.609V197h-1.693v-6.34h1.593zm7.805 5.092c.313 0 .566-.086.762-.258a.9.9 0 00.304-.685h1.588a2.19 2.19 0 01-.351 1.183 2.343 2.343 0 01-.949.832c-.399.196-.84.293-1.325.293-.906 0-1.621-.287-2.144-.861-.524-.578-.785-1.375-.785-2.391v-.111c0-.977.259-1.756.779-2.338.52-.582 1.232-.873 2.139-.873.793 0 1.427.227 1.904.68.48.449.725 1.048.732 1.798h-1.588c-.007-.328-.109-.593-.304-.796-.196-.207-.453-.311-.774-.311-.394 0-.693.145-.896.434-.199.285-.299.75-.299 1.394v.176c0 .652.1 1.121.299 1.406.199.285.502.428.908.428zm6.539 1.365c-.93 0-1.687-.285-2.273-.855-.582-.571-.873-1.33-.873-2.28v-.164c0-.636.123-1.205.369-1.705.246-.504.594-.89 1.043-1.16a2.94 2.94 0 011.547-.41c.867 0 1.548.273 2.045.82.5.547.75 1.323.75 2.326v.692h-4.038c.055.414.219.746.493.996.277.25.627.375 1.048.375.653 0 1.163-.236 1.53-.709l.832.932c-.254.359-.598.64-1.031.843-.434.2-.915.299-1.442.299zm-.193-5.203c-.336 0-.61.113-.821.34-.207.226-.339.551-.398.973h2.355v-.135c-.007-.375-.109-.664-.304-.867-.195-.207-.473-.311-.832-.311z" fill="#4F4F4F"/><rect x="474" y="190" width="7" height="7" rx="3.5" fill="#F2994A"/><path d="M859 60.633h8.531v2.789c0 .926-.191 1.621-.574 2.086-.383.469-.949.703-1.699.703-.399 0-.752-.113-1.061-.34a2.219 2.219 0 01-.709-.926 1.96 1.96 0 01-.738 1.09c-.359.27-.789.404-1.289.404-.766 0-1.367-.248-1.805-.744-.437-.496-.656-1.197-.656-2.103v-2.96zm3.99 1.125h-3.07v1.857c0 .524.135.936.404 1.237.274.304.649.457 1.125.457 1.028 0 1.541-.559 1.541-1.676v-1.875zm.903 0v1.699c0 .492.123.885.369 1.178.246.297.58.445 1.002.445.468 0 .808-.137 1.019-.41.215-.273.322-.69.322-1.248v-1.664h-2.712zM859 71.853c.125-.062.348-.113.668-.152-.523-.504-.785-1.105-.785-1.804 0-.626.176-1.14.527-1.541a1.73 1.73 0 011.348-.598c.66 0 1.172.25 1.535.75.367.504.551 1.21.551 2.12v1.056h.498c.379 0 .679-.114.902-.34.227-.227.34-.56.34-1.002 0-.387-.098-.711-.293-.973-.195-.262-.432-.392-.709-.392v-1.09c.316 0 .621.111.914.334.297.226.531.531.703.914.172.386.258.81.258 1.271 0 .73-.184 1.303-.551 1.717-.363.414-.865.629-1.506.645h-2.918c-.582 0-1.045.074-1.388.222H859v-1.136zm.826-1.798c0 .34.088.662.264.966.176.305.404.526.685.663h1.301v-.85c0-1.328-.389-1.992-1.166-1.992-.34 0-.605.113-.797.34-.191.226-.287.517-.287.873zm-.826 5.59V74.56h9v1.083h-9zm0 5.654c.125-.063.348-.113.668-.153-.523-.503-.785-1.105-.785-1.804 0-.625.176-1.139.527-1.541a1.73 1.73 0 011.348-.598c.66 0 1.172.25 1.535.75.367.504.551 1.211.551 2.121v1.055h.498c.379 0 .679-.113.902-.34.227-.227.34-.56.34-1.002 0-.387-.098-.71-.293-.973-.195-.261-.432-.392-.709-.392v-1.09c.316 0 .621.111.914.334.297.227.531.531.703.914.172.387.258.81.258 1.272 0 .73-.184 1.302-.551 1.716-.363.414-.865.63-1.506.645h-2.918c-.582 0-1.045.074-1.388.223H859v-1.137zm.826-1.799c0 .34.088.662.264.967.176.305.404.525.685.662h1.301v-.85c0-1.328-.389-1.992-1.166-1.992-.34 0-.605.113-.797.34-.191.227-.287.517-.287.873zm5.514 5.438l-.797.035c.609.484.914 1.117.914 1.898 0 1.34-.756 2.016-2.268 2.028H859v-1.085h4.195c.457-.003.795-.109 1.014-.316.219-.203.328-.521.328-.955 0-.352-.094-.66-.281-.926a1.918 1.918 0 00-.738-.62H859v-1.085h6.34v1.025zm-5.572 8.138c0 .387.117.725.351 1.014.235.289.527.45.879.48v1.026a1.965 1.965 0 01-1.037-.375 2.462 2.462 0 01-.785-.926 2.636 2.636 0 01-.293-1.219c0-.863.287-1.55.861-2.062.578-.508 1.367-.762 2.367-.762h.182c.617 0 1.166.113 1.646.34.481.226.854.55 1.12.972.265.426.398.928.398 1.506 0 .711-.213 1.301-.639 1.77-.425.472-.978.724-1.658.756V94.57c.41-.03.746-.187 1.008-.468.266-.278.398-.621.398-1.032 0-.55-.199-.978-.597-1.283-.395-.3-.967-.451-1.717-.451h-.205c-.731 0-1.293.15-1.688.451-.394.3-.591.73-.591 1.29zm-.885 6.37c0-.86.281-1.56.844-2.098.566-.54 1.322-.809 2.267-.809h.199c.629 0 1.19.12 1.682.358.496.242.883.578 1.16 1.007.281.434.422.903.422 1.407 0 .824-.271 1.464-.814 1.921-.543.457-1.321.686-2.332.686h-.452v-4.295c-.625.016-1.13.197-1.517.545-.383.351-.574.797-.574 1.336 0 .383.078.707.234.973.156.265.363.498.621.697l-.516.662c-.816-.531-1.224-1.328-1.224-2.39zm5.683-.135c0-.438-.16-.805-.48-1.102-.316-.297-.762-.48-1.336-.55v3.175h.082c.551-.031.977-.18 1.277-.445.305-.266.457-.625.457-1.078z" fill="#BDBDBD"/><path d="M68 148.18h733m-733-34h733m-733-33h733m-733-34h733m-733-33h733" stroke="#E0E0E0" stroke-width=".5"/><path fill="url(#paint1_linear)" d="M87 64.18h4v84h-4z"/><path fill="url(#paint2_linear)" d="M136 98.18h4v50h-4z"/><path fill="url(#paint3_linear)" d="M186 72.18h4v76h-4z"/><path fill="url(#paint4_linear)" d="M235 126.18h4v22h-4z"/><path fill="url(#paint5_linear)" d="M285 81.18h4v67h-4z"/><path transform="matrix(1 0 0 -1 285 81.18)" fill="url(#paint6_linear)" d="M0 0h4v11H0z"/><path transform="matrix(1 0 0 -1 334 75.18)" fill="url(#paint7_linear)" d="M0 0h4v7H0z"/><path transform="matrix(1 0 0 -1 532 28.18)" fill="url(#paint8_linear)" d="M0 0h4v12H0z"/><path transform="matrix(1 0 0 -1 581 103.18)" fill="url(#paint9_linear)" d="M0 0h4v7H0z"/><path transform="scale(1 -1) rotate(.451 12809.895 86307.808)" fill="url(#paint10_linear)" d="M0 0h4v11.052H0z"/><path transform="scale(1 -1) rotate(.451 7509.894 92685.778)" fill="url(#paint11_linear)" d="M0 0h4v11.052H0z"/><path transform="scale(1 -1) rotate(.451 1364.857 80137.746)" fill="url(#paint12_linear)" d="M0 0h4v8.232H0z"/><path transform="scale(1 -1) rotate(.451 8550.303 98904.3)" fill="url(#paint13_linear)" d="M0 0h4v7.925H0z"/><path transform="matrix(1 0 0 -1 235 126.18)" fill="url(#paint14_linear)" d="M0 0h4v7H0z"/><path transform="matrix(1 0 0 -1 186 72.18)" fill="url(#paint15_linear)" d="M0 0h4v12H0z"/><path transform="matrix(1 0 0 -1 136 98.18)" fill="url(#paint16_linear)" d="M0 0h4v8H0z"/><path transform="matrix(1 0 0 -1 87 64.18)" fill="url(#paint17_linear)" d="M0 0h4v14H0z"/><path fill="url(#paint18_linear)" d="M334 75.18h4v73h-4z"/><path d="M384 64.18h4v84h-4v-84z" fill="url(#paint19_linear)"/><path fill="url(#paint20_linear)" d="M433 64.18h4v84h-4z"/><path fill="url(#paint21_linear)" d="M482 64.18h4v84h-4z"/><path fill="url(#paint22_linear)" d="M532 28.18h4v120h-4z"/><path fill="url(#paint23_linear)" d="M581 103.18h4v45h-4z"/><path fill="url(#paint24_linear)" d="M631 8.18h4v140h-4z"/><path fill="url(#paint25_linear)" d="M680 98.18h4v50h-4z"/><path fill="url(#paint26_linear)" d="M730 56.18h4v92h-4z"/><path fill="url(#paint27_linear)" d="M779 64.18h4v84h-4z"/><path d="M65 129.68c34.8-8.4 94.167-22.5 119.5-28.5l60.5-22 68-18.5h174.5c5 0 84-22.5 87.5-24 2.8-1.2 41.5-17.167 60.5-25l15.5-4.5 69 20 71-20" stroke="#6FCF97" stroke-width="2"/><rect x="332" y="57.18" width="7" height="7" rx="3.5" fill="#fff" stroke="#6FCF97" stroke-width="2"/><g filter="url(#filter0_d)"><rect x="345" y="14.18" width="165" height="102" rx="2" fill="#fff"/><rect x="345.5" y="14.68" width="164" height="101" rx="1.5" stroke="#0B679C"/></g><rect x="355" y="54.18" width="6" height="6" rx="3" fill="#2F80ED"/><rect x="355" y="76.18" width="6" height="6" rx="3" fill="#27AE60"/><rect x="355" y="98.18" width="6" height="6" rx="3" fill="#F2994A"/><path d="M373.119 57.729h-2.004v3.45h-1.131v-8.53h2.825c.961 0 1.699.218 2.214.656.52.437.78 1.074.78 1.91 0 .531-.145.994-.434 1.389-.285.394-.683.69-1.195.885l2.004 3.62v.07h-1.207l-1.852-3.45zm-2.004-.92h1.729c.558 0 1.002-.145 1.33-.434.332-.289.498-.675.498-1.16 0-.527-.158-.932-.475-1.213-.312-.281-.765-.424-1.359-.428h-1.723v3.235zm8.731 4.488c-.86 0-1.559-.281-2.098-.844-.539-.566-.809-1.322-.809-2.267v-.2c0-.628.12-1.189.358-1.681a2.811 2.811 0 011.008-1.16 2.532 2.532 0 011.406-.422c.824 0 1.465.271 1.922.814.457.543.685 1.32.685 2.332v.452h-4.295c.016.625.198 1.13.545 1.517.352.383.797.574 1.336.574.383 0 .707-.078.973-.234.266-.156.498-.363.697-.621l.662.515c-.531.817-1.328 1.225-2.39 1.225zm-.135-5.683c-.438 0-.805.16-1.102.48-.296.316-.48.762-.55 1.336h3.175v-.082c-.031-.55-.179-.977-.445-1.277-.266-.305-.625-.457-1.078-.457zm9.48 4.072l1.219-4.846h1.084l-1.846 6.34h-.878l-1.541-4.805-1.5 4.805h-.879l-1.84-6.34h1.078l1.248 4.746 1.476-4.746h.874l1.505 4.846zm7.325 1.494c-.063-.125-.114-.348-.153-.668-.504.523-1.105.785-1.804.785-.625 0-1.139-.176-1.541-.527a1.727 1.727 0 01-.598-1.348c0-.66.25-1.172.75-1.535.504-.367 1.211-.55 2.121-.55h1.055v-.499c0-.379-.114-.68-.34-.902-.227-.227-.561-.34-1.002-.34-.387 0-.711.098-.973.293-.261.195-.392.432-.392.709h-1.09c0-.316.111-.621.334-.914a2.31 2.31 0 01.914-.703c.387-.172.81-.258 1.271-.258.731 0 1.303.184 1.717.55.414.364.629.866.645 1.507v2.917c0 .583.074 1.045.222 1.39v.093h-1.136zm-1.799-.826c.34 0 .662-.088.967-.264a1.6 1.6 0 00.662-.685v-1.301h-.85c-1.328 0-1.992.388-1.992 1.166 0 .34.113.605.34.797.226.191.517.287.873.287zm7.476-4.541a3.234 3.234 0 00-.533-.041c-.711 0-1.193.303-1.447.908v4.5h-1.084v-6.34h1.055l.017.732c.356-.566.86-.85 1.512-.85.211 0 .371.028.48.083v1.008zm.621 2.144c0-.972.231-1.754.692-2.343.461-.594 1.064-.891 1.81-.891.743 0 1.33.254 1.764.762V52.18h1.084v9h-.996l-.053-.68c-.433.532-1.037.797-1.81.797-.735 0-1.334-.3-1.799-.902-.461-.602-.692-1.387-.692-2.356v-.082zm1.084.123c0 .72.149 1.282.446 1.688.297.406.707.61 1.23.61.688 0 1.19-.31 1.506-.927V56.54c-.324-.597-.822-.896-1.494-.896-.531 0-.945.205-1.242.615-.297.41-.446 1.018-.446 1.822zm5.918 2.532c0-.188.055-.344.164-.47.114-.124.282-.187.504-.187.223 0 .391.063.504.188a.66.66 0 01.176.469.62.62 0 01-.176.45c-.113.122-.281.182-.504.182-.222 0-.39-.06-.504-.181a.65.65 0 01-.164-.451zm.006-5.174c0-.188.055-.344.164-.469.114-.125.282-.188.504-.188.223 0 .391.063.504.188a.66.66 0 01.176.469.62.62 0 01-.176.45c-.113.122-.281.183-.504.183-.222 0-.39-.061-.504-.182a.65.65 0 01-.164-.451z" fill="#828282"/><path d="M422.081 61.18h-6.214v-1.06l3.078-3.358c.445-.495.76-.908.946-1.238.191-.334.286-.668.286-1.003 0-.44-.125-.795-.375-1.066-.245-.271-.577-.406-.996-.406-.5 0-.887.152-1.162.457-.275.304-.413.721-.413 1.25h-1.542c0-.563.127-1.068.381-1.517a2.662 2.662 0 011.098-1.054c.478-.25 1.028-.374 1.65-.374.897 0 1.604.226 2.12.679.521.449.781 1.07.781 1.866 0 .462-.131.946-.393 1.454-.258.503-.684 1.077-1.276 1.72l-2.26 2.419h4.291v1.23zm1.587-4.583l.501-4.66h4.964v1.334h-3.681l-.254 2.209c.427-.246.91-.368 1.447-.368.88 0 1.564.281 2.05.844.491.563.737 1.32.737 2.272 0 .94-.271 1.689-.813 2.247-.542.555-1.284.832-2.228.832-.846 0-1.549-.24-2.107-.717-.555-.483-.855-1.118-.902-1.905h1.492c.059.449.22.794.482 1.035.263.237.606.355 1.029.355.474 0 .842-.169 1.104-.507.267-.339.4-.8.4-1.384 0-.563-.146-1.007-.438-1.333-.292-.33-.694-.495-1.206-.495-.279 0-.516.038-.711.114-.194.072-.406.216-.635.432l-1.231-.305zm13 .692c0 1.329-.25 2.331-.749 3.009-.495.672-1.251 1.009-2.266 1.009-.999 0-1.752-.328-2.26-.984-.504-.66-.762-1.636-.774-2.926v-1.6c0-1.329.247-2.325.742-2.99.5-.664 1.259-.996 2.279-.996 1.012 0 1.765.324 2.26.971.499.648.755 1.617.768 2.907v1.6zm-1.543-1.727c0-.867-.118-1.502-.355-1.904-.237-.406-.614-.61-1.13-.61-.503 0-.874.193-1.111.578-.237.381-.362.978-.374 1.79v2.095c0 .863.12 1.506.362 1.93.241.423.62.634 1.136.634.495 0 .861-.194 1.098-.584.237-.393.362-1.007.374-1.84v-2.089zm3.968 3.993c.288 0 .51.083.666.248.157.16.235.363.235.609a.828.828 0 01-.235.603c-.156.157-.378.235-.666.235-.275 0-.493-.078-.654-.235a.804.804 0 01-.241-.603c0-.246.078-.449.235-.61.156-.164.376-.247.66-.247zm8.595-2.266c0 1.329-.25 2.331-.75 3.009-.495.672-1.25 1.009-2.266 1.009-.998 0-1.752-.328-2.259-.984-.504-.66-.762-1.636-.775-2.926v-1.6c0-1.329.248-2.325.743-2.99.499-.664 1.259-.996 2.279-.996 1.011 0 1.764.324 2.259.971.5.648.756 1.617.769 2.907v1.6zm-1.543-1.727c0-.867-.118-1.502-.355-1.904-.237-.406-.614-.61-1.13-.61-.504 0-.874.193-1.111.578-.237.381-.362.978-.375 1.79v2.095c0 .863.121 1.506.362 1.93.241.423.62.634 1.136.634.495 0 .862-.194 1.099-.584.236-.393.361-1.007.374-1.84v-2.089zm8.931 1.727c0 1.329-.25 2.331-.749 3.009-.495.672-1.25 1.009-2.266 1.009-.999 0-1.752-.328-2.26-.984-.503-.66-.761-1.636-.774-2.926v-1.6c0-1.329.247-2.325.743-2.99.499-.664 1.258-.996 2.278-.996 1.012 0 1.765.324 2.26.971.499.648.755 1.617.768 2.907v1.6zm-1.542-1.727c0-.867-.119-1.502-.356-1.904-.237-.406-.613-.61-1.13-.61-.503 0-.874.193-1.11.578-.237.381-.362.978-.375 1.79v2.095c0 .863.121 1.506.362 1.93.241.423.62.634 1.136.634.495 0 .861-.194 1.098-.584.237-.393.362-1.007.375-1.84v-2.089zm13.152-3.624v6.176c0 .982-.315 1.76-.946 2.336-.626.571-1.462.857-2.507.857-1.058 0-1.898-.282-2.52-.844-.622-.567-.933-1.352-.933-2.355v-6.17h1.599v6.182c0 .618.157 1.09.47 1.416.313.326.775.489 1.384.489 1.236 0 1.853-.652 1.853-1.955v-6.132h1.6zm6.551 6.862c0-.407-.144-.72-.432-.94-.283-.22-.798-.442-1.542-.666-.745-.225-1.338-.474-1.778-.75-.842-.528-1.263-1.218-1.263-2.069 0-.745.303-1.358.908-1.84.609-.483 1.398-.724 2.368-.724.643 0 1.216.118 1.72.355a2.82 2.82 0 011.187 1.016c.288.436.431.92.431 1.453h-1.599c0-.482-.153-.858-.457-1.13-.301-.274-.732-.412-1.295-.412-.525 0-.933.112-1.225.336-.288.225-.432.538-.432.94 0 .339.157.622.47.85.313.225.829.445 1.549.66.719.212 1.297.456 1.733.73.435.271.755.585.958.94.203.351.305.764.305 1.238 0 .77-.296 1.384-.889 1.84-.588.453-1.388.68-2.399.68a4.565 4.565 0 01-1.847-.368c-.559-.25-.995-.593-1.308-1.029-.309-.435-.463-.943-.463-1.523h1.605c0 .525.174.931.521 1.219.347.288.844.431 1.492.431.558 0 .977-.112 1.257-.336.283-.229.425-.529.425-.901zm3.015 2.38v-9.242h2.729c.817 0 1.541.182 2.171.546.635.364 1.126.88 1.473 1.548.347.67.521 1.435.521 2.298v.464c0 .876-.176 1.646-.527 2.31a3.656 3.656 0 01-1.492 1.536c-.643.36-1.382.54-2.215.54h-2.66zm1.606-7.947v6.665h1.047c.842 0 1.488-.263 1.936-.787.453-.53.684-1.287.692-2.273v-.514c0-1.003-.218-1.769-.654-2.298-.435-.529-1.068-.793-1.898-.793h-1.123zM375.744 32.541c0 1.27-.217 2.213-.65 2.83-.434.617-1.112.926-2.033.926-.911 0-1.584-.3-2.022-.902-.437-.606-.664-1.508-.68-2.707V31.24c0-1.253.217-2.185.651-2.794.433-.61 1.113-.915 2.039-.915.918 0 1.594.295 2.027.885.434.586.656 1.492.668 2.719v1.406zm-1.084-1.482c0-.918-.129-1.586-.387-2.004-.257-.422-.666-.633-1.224-.633-.555 0-.959.21-1.213.627-.254.418-.385 1.06-.393 1.928v1.734c0 .922.133 1.604.399 2.045.269.438.676.656 1.219.656.535 0 .931-.207 1.189-.62.262-.415.398-1.067.41-1.958V31.06zm6.035 5.12h-1.09v-7.224l-2.185.803v-.984l3.105-1.166h.17v8.572zm7.887-8.53l2.789 6.96 2.789-6.96h1.459v8.53h-1.125v-3.321l.106-3.586-2.801 6.908h-.861l-2.795-6.89.111 3.568v3.322h-1.125v-8.531h1.453zm13.84 6.304h-3.574l-.803 2.227h-1.16l3.258-8.531h.984l3.264 8.53h-1.155l-.814-2.226zm-3.234-.925h2.9l-1.453-3.99-1.447 3.99zm9.48-.3h-2.004v3.452h-1.131v-8.531h2.824c.961 0 1.7.218 2.215.656.52.437.78 1.074.78 1.91 0 .531-.145.994-.434 1.389-.285.394-.684.69-1.195.885l2.004 3.62v.07h-1.207l-1.852-3.45zm-2.004-.92h1.729c.558 0 1.002-.144 1.33-.433.332-.289.498-.675.498-1.16 0-.527-.159-.931-.475-1.213-.312-.281-.766-.424-1.359-.427h-1.723v3.234zm12.545 1.665c-.105.902-.439 1.6-1.002 2.092-.559.488-1.303.732-2.232.732-1.008 0-1.817-.361-2.426-1.084-.606-.723-.908-1.69-.908-2.9v-.82c0-.793.14-1.49.421-2.092.286-.602.688-1.063 1.208-1.383.519-.324 1.121-.486 1.804-.486.906 0 1.633.253 2.18.761.547.504.865 1.203.955 2.098h-1.131c-.098-.68-.31-1.172-.639-1.477-.324-.304-.779-.457-1.365-.457-.719 0-1.283.266-1.693.797-.406.531-.61 1.287-.61 2.268v.826c0 .926.194 1.662.581 2.209.386.547.927.82 1.623.82.625 0 1.103-.14 1.435-.422.336-.285.559-.779.668-1.482h1.131zm8.098 2.707h-1.131v-3.943h-4.301v3.943h-1.125v-8.531h1.125v3.668h4.301v-3.668h1.131v8.53zm-63.535-8.195a.732.732 0 00-.541-.234h-.769v-.589a.954.954 0 00-.283-.694.915.915 0 00-.679-.288h-.384a.919.919 0 00-.68.288.957.957 0 00-.282.694v.59h-2.308v-.59a.957.957 0 00-.282-.694.917.917 0 00-.679-.288h-.385a.917.917 0 00-.679.288.958.958 0 00-.283.694v.59h-.769a.734.734 0 00-.541.233.764.764 0 00-.228.552v7.857c0 .213.076.397.228.553a.734.734 0 00.541.233h8.462a.732.732 0 00.541-.233.764.764 0 00.228-.553v-7.857a.764.764 0 00-.228-.552zm-2.849-.823c0-.057.018-.104.054-.141a.185.185 0 01.138-.055h.385c.056 0 .102.018.138.055a.194.194 0 01.054.141v1.768a.194.194 0 01-.054.141.185.185 0 01-.138.055h-.385a.185.185 0 01-.138-.055.194.194 0 01-.054-.141v-1.768zm-4.615 0c0-.057.018-.104.054-.141a.185.185 0 01.138-.055h.385c.056 0 .102.018.138.055a.194.194 0 01.054.141v1.768a.194.194 0 01-.054.141.185.185 0 01-.138.055h-.385a.185.185 0 01-.138-.055.194.194 0 01-.054-.141v-1.768zm6.923 9.232h-8.462V30.11h8.462v6.285z" fill="#4F4F4F"/><path d="M369.99 83.18v-8.531h2.789c.926 0 1.621.191 2.086.574.469.383.703.95.703 1.7 0 .398-.113.751-.339 1.06a2.22 2.22 0 01-.926.709 1.96 1.96 0 011.09.738c.269.36.404.789.404 1.289 0 .766-.248 1.367-.744 1.805-.496.437-1.198.656-2.104.656h-2.959zm1.125-3.99v3.07h1.858c.523 0 .935-.135 1.236-.404.305-.274.457-.649.457-1.125 0-1.028-.559-1.541-1.676-1.541h-1.875zm0-.903h1.699c.493 0 .885-.123 1.178-.369.297-.246.446-.58.446-1.002 0-.468-.137-.808-.411-1.02-.273-.214-.689-.322-1.248-.322h-1.664v2.713zm10.096 4.893c-.063-.125-.113-.348-.152-.668-.504.523-1.106.785-1.805.785-.625 0-1.139-.176-1.541-.527a1.727 1.727 0 01-.598-1.348c0-.66.25-1.172.75-1.535.504-.367 1.211-.55 2.121-.55h1.055v-.499c0-.379-.113-.68-.34-.902-.226-.227-.56-.34-1.002-.34-.387 0-.711.098-.972.293-.262.195-.393.432-.393.709h-1.09c0-.317.111-.621.334-.914.227-.297.531-.531.914-.703a3.1 3.1 0 011.272-.258c.73 0 1.302.183 1.716.55.415.364.629.866.645 1.507v2.918c0 .582.074 1.044.223 1.388v.094h-1.137zm-1.799-.826c.34 0 .662-.088.967-.264.305-.176.525-.404.662-.685v-1.301h-.85c-1.328 0-1.992.388-1.992 1.166 0 .34.113.605.34.797.227.191.518.287.873.287zm5.59.826h-1.084v-9h1.084v9zm5.654 0c-.062-.125-.113-.348-.152-.668-.504.523-1.106.785-1.805.785-.625 0-1.138-.176-1.541-.527a1.729 1.729 0 01-.597-1.348c0-.66.25-1.172.75-1.535.503-.367 1.21-.55 2.121-.55h1.054v-.499c0-.379-.113-.68-.34-.902-.226-.227-.56-.34-1.001-.34-.387 0-.711.098-.973.293-.262.195-.393.432-.393.709h-1.09c0-.317.112-.621.334-.914a2.32 2.32 0 01.915-.703c.386-.172.81-.258 1.271-.258.73 0 1.303.183 1.717.55.414.364.629.866.644 1.507v2.918c0 .582.075 1.044.223 1.388v.094h-1.137zm-1.799-.826c.34 0 .663-.088.967-.264a1.59 1.59 0 00.662-.685v-1.301h-.849c-1.328 0-1.992.388-1.992 1.166 0 .34.113.605.339.797.227.191.518.287.873.287zm5.438-5.514l.035.797c.484-.61 1.117-.914 1.899-.914 1.339 0 2.015.756 2.027 2.267v4.19h-1.084v-4.195c-.004-.457-.11-.795-.317-1.014-.203-.219-.521-.328-.955-.328-.351 0-.66.094-.925.281a1.903 1.903 0 00-.621.738v4.518h-1.084v-6.34h1.025zm8.139 5.572a1.56 1.56 0 001.013-.351 1.24 1.24 0 00.481-.88h1.025a1.957 1.957 0 01-.375 1.038 2.46 2.46 0 01-.926.785 2.642 2.642 0 01-1.218.293c-.864 0-1.551-.287-2.063-.861-.508-.578-.762-1.367-.762-2.367v-.182c0-.617.114-1.166.34-1.647.227-.48.551-.853.973-1.119.426-.265.928-.398 1.506-.398.711 0 1.301.213 1.769.639.473.425.725.978.756 1.658h-1.025a1.482 1.482 0 00-.469-1.008 1.432 1.432 0 00-1.031-.398c-.551 0-.979.199-1.283.597-.301.395-.452.967-.452 1.717v.205c0 .73.151 1.293.452 1.688.3.394.73.591 1.289.591zm6.369.885c-.86 0-1.559-.281-2.098-.844-.539-.566-.809-1.322-.809-2.267v-.2c0-.628.12-1.189.358-1.681a2.811 2.811 0 011.008-1.16 2.532 2.532 0 011.406-.422c.824 0 1.465.271 1.922.814.457.543.685 1.32.685 2.332v.452h-4.295c.016.625.198 1.13.545 1.517.352.383.797.574 1.336.574.383 0 .707-.078.973-.234.266-.156.498-.363.697-.621l.662.516c-.531.816-1.328 1.224-2.39 1.224zm-.135-5.683c-.438 0-.805.16-1.102.48-.296.316-.48.762-.55 1.336h3.175v-.082c-.031-.55-.179-.977-.445-1.277-.266-.305-.625-.457-1.078-.457zm3.832 4.998c0-.188.055-.344.164-.47.113-.124.281-.187.504-.187.223 0 .391.063.504.188a.66.66 0 01.176.469.62.62 0 01-.176.45c-.113.122-.281.182-.504.182-.223 0-.391-.06-.504-.181a.65.65 0 01-.164-.451zm.006-5.174c0-.188.055-.344.164-.469.113-.125.281-.188.504-.188.222 0 .39.063.504.188a.66.66 0 01.176.469.62.62 0 01-.176.45c-.114.122-.282.183-.504.183-.223 0-.391-.061-.504-.182a.65.65 0 01-.164-.451z" fill="#828282"/><path d="M422.727 83.18h-1.536v-7.42l-2.266.774v-1.301l3.605-1.327h.197v9.274zm3.625-4.583l.501-4.66h4.964v1.334h-3.682l-.254 2.209a2.85 2.85 0 011.448-.368c.88 0 1.563.281 2.05.844.491.563.736 1.32.736 2.272 0 .94-.271 1.689-.812 2.247-.542.555-1.285.832-2.228.832-.847 0-1.549-.24-2.108-.717-.554-.483-.855-1.118-.901-1.905h1.492c.059.449.22.794.482 1.035.262.237.605.356 1.028.356.474 0 .842-.17 1.105-.508.266-.339.4-.8.4-1.384 0-.563-.146-1.007-.438-1.333-.292-.33-.694-.495-1.206-.495-.28 0-.517.038-.711.114-.195.072-.406.216-.635.432l-1.231-.305zm8.036 2.958c.287 0 .51.082.666.247a.837.837 0 01.235.61.828.828 0 01-.235.603c-.156.156-.379.235-.666.235-.275 0-.493-.079-.654-.235a.804.804 0 01-.241-.603c0-.246.078-.449.235-.61.156-.165.376-.247.66-.247zm8.594-2.266c0 1.329-.249 2.332-.749 3.009-.495.672-1.25 1.009-2.266 1.009-.998 0-1.752-.328-2.259-.984-.504-.66-.762-1.636-.775-2.926v-1.6c0-1.329.248-2.325.743-2.99.499-.664 1.259-.996 2.279-.996 1.011 0 1.764.323 2.259.971.5.648.756 1.617.768 2.907v1.6zm-1.542-1.727c0-.867-.119-1.502-.356-1.904-.237-.406-.613-.61-1.129-.61-.504 0-.874.193-1.111.578-.237.381-.362.978-.375 1.79v2.095c0 .863.121 1.507.362 1.93.241.423.62.635 1.136.635.495 0 .861-.195 1.098-.584.237-.394.362-1.008.375-1.841v-2.089zm8.931 1.727c0 1.329-.25 2.332-.749 3.009-.495.672-1.25 1.009-2.266 1.009-.999 0-1.752-.328-2.26-.984-.503-.66-.762-1.636-.774-2.926v-1.6c0-1.329.247-2.325.742-2.99.5-.664 1.259-.996 2.279-.996 1.012 0 1.765.323 2.26.971.499.648.755 1.617.768 2.907v1.6zm-1.542-1.727c0-.867-.119-1.502-.356-1.904-.237-.406-.613-.61-1.13-.61-.503 0-.874.193-1.111.578-.237.381-.361.978-.374 1.79v2.095c0 .863.121 1.507.362 1.93.241.423.62.635 1.136.635.495 0 .861-.195 1.098-.584.237-.394.362-1.008.375-1.841v-2.089zm13.152-3.624v6.176c0 .982-.315 1.76-.946 2.336-.626.571-1.462.857-2.507.857-1.058 0-1.898-.282-2.52-.844-.622-.567-.933-1.352-.933-2.355v-6.17h1.599v6.182c0 .618.157 1.09.47 1.416.313.326.774.489 1.384.489 1.236 0 1.853-.652 1.853-1.955v-6.132h1.6zm6.551 6.862c0-.407-.144-.72-.432-.94-.283-.22-.798-.442-1.542-.666-.745-.225-1.338-.474-1.778-.75-.842-.528-1.263-1.218-1.263-2.069 0-.745.303-1.358.908-1.84.609-.483 1.398-.724 2.367-.724.644 0 1.217.118 1.721.355a2.82 2.82 0 011.187 1.016c.287.436.431.92.431 1.453h-1.599c0-.482-.153-.859-.457-1.13-.301-.274-.732-.412-1.295-.412-.525 0-.933.112-1.225.337-.288.224-.432.537-.432.939 0 .338.157.622.47.85.313.225.829.445 1.549.66.719.212 1.297.456 1.733.73.435.272.755.585.958.94.203.351.305.764.305 1.238 0 .77-.297 1.384-.889 1.84-.588.454-1.388.68-2.399.68a4.573 4.573 0 01-1.848-.368c-.558-.25-.994-.593-1.307-1.029-.309-.435-.464-.943-.464-1.523h1.606c0 .525.174.931.521 1.219.347.288.844.431 1.492.431.558 0 .977-.112 1.256-.336a1.1 1.1 0 00.426-.901zm3.015 2.38v-9.242h2.729c.817 0 1.541.182 2.171.546.635.364 1.126.88 1.473 1.549.347.668.52 1.434.52 2.297v.464c0 .876-.175 1.646-.526 2.31a3.656 3.656 0 01-1.492 1.536c-.643.36-1.382.54-2.215.54h-2.66zm1.606-7.947v6.665h1.047c.842 0 1.488-.263 1.936-.787.453-.53.684-1.287.692-2.273v-.514c0-1.003-.218-1.769-.654-2.298-.436-.529-1.068-.793-1.898-.793h-1.123z" fill="#4F4F4F"/><path d="M371.789 96.649l2.461 6.539 2.455-6.54h1.916v8.532h-1.476v-2.813l.146-3.761-2.52 6.574h-1.06l-2.514-6.568.147 3.755v2.813h-1.477v-8.531h1.922zm12.24 8.531c-.062-.121-.117-.318-.164-.592a2.215 2.215 0 01-1.664.709c-.637 0-1.156-.182-1.558-.545a1.74 1.74 0 01-.604-1.347c0-.676.25-1.194.75-1.553.504-.363 1.223-.545 2.156-.545h.873v-.416c0-.328-.091-.59-.275-.785-.184-.2-.463-.3-.838-.3-.324 0-.59.083-.797.247a.744.744 0 00-.31.615h-1.424c0-.347.115-.672.346-.972.23-.305.542-.543.937-.715a3.323 3.323 0 011.33-.258c.742 0 1.334.187 1.775.562.442.371.668.895.68 1.571v2.859c0 .57.08 1.025.24 1.365v.1h-1.453zm-1.564-1.025c.281 0 .545-.069.791-.206.25-.136.437-.32.562-.55v-1.196h-.767c-.528 0-.924.092-1.19.276a.892.892 0 00-.398.779c0 .273.09.492.269.656.184.16.428.241.733.241zm5.783 1.025h-1.424v-6.34h1.424v6.34zm-1.512-7.986c0-.22.069-.4.205-.545.141-.145.34-.217.598-.217.258 0 .457.072.598.217.14.144.211.326.211.545a.745.745 0 01-.211.539c-.141.14-.34.21-.598.21-.258 0-.457-.07-.598-.21a.757.757 0 01-.205-.54zm4.389 1.646l.041.733c.469-.567 1.084-.85 1.846-.85 1.32 0 1.992.756 2.015 2.267v4.19h-1.423v-4.107c0-.403-.088-.7-.264-.891-.172-.195-.455-.293-.85-.293-.574 0-1.002.26-1.283.779v4.512h-1.424v-6.34h1.342zm7.143-1.54v1.54h1.119v1.055h-1.119v3.539c0 .242.046.418.14.527.098.106.27.158.516.158.164 0 .33-.019.498-.058v1.101c-.324.09-.637.135-.938.135-1.093 0-1.64-.603-1.64-1.81v-3.592h-1.043V98.84h1.043V97.3h1.424zm5.003 7.997c-.902 0-1.634-.283-2.197-.849-.558-.571-.838-1.329-.838-2.274v-.176c0-.633.121-1.197.364-1.693.246-.5.589-.889 1.031-1.166a2.716 2.716 0 011.476-.416c.864 0 1.53.275 1.998.826.473.551.709 1.33.709 2.338v.574h-4.142c.043.524.217.938.521 1.242.309.305.696.457 1.161.457.652 0 1.183-.263 1.593-.791l.768.733a2.582 2.582 0 01-1.02.885c-.422.207-.896.31-1.424.31zm-.169-5.431c-.391 0-.707.136-.95.41-.238.273-.39.654-.457 1.142h2.713v-.105c-.031-.477-.158-.836-.381-1.078-.222-.246-.531-.37-.925-.37zm5.144-1.026l.041.733c.469-.567 1.084-.85 1.846-.85 1.32 0 1.992.756 2.015 2.267v4.19h-1.423v-4.107c0-.403-.088-.7-.264-.891-.172-.195-.455-.293-.85-.293-.574 0-1.002.26-1.283.779v4.512h-1.424v-6.34h1.342zm9.147 6.34c-.063-.121-.118-.318-.164-.592a2.217 2.217 0 01-1.665.709c-.636 0-1.156-.182-1.558-.545a1.744 1.744 0 01-.604-1.347c0-.676.25-1.194.75-1.553.504-.363 1.223-.545 2.157-.545h.873v-.416c0-.328-.092-.59-.276-.785-.183-.2-.463-.3-.838-.3-.324 0-.589.083-.797.247a.744.744 0 00-.31.615h-1.424c0-.347.115-.672.346-.972.23-.305.543-.543.937-.715a3.326 3.326 0 011.33-.258c.743 0 1.334.187 1.776.562.441.371.668.895.679 1.571v2.859c0 .57.081 1.025.241 1.365v.1h-1.453zm-1.565-1.025c.281 0 .545-.069.791-.206.25-.136.438-.32.563-.55v-1.196h-.768c-.527 0-.924.092-1.189.276a.89.89 0 00-.399.779c0 .273.09.492.27.656.183.16.427.241.732.241zm5.59-5.315l.041.733c.469-.567 1.084-.85 1.846-.85 1.32 0 1.992.756 2.015 2.267v4.19h-1.424v-4.107c0-.403-.087-.7-.263-.891-.172-.195-.455-.293-.85-.293-.574 0-1.002.26-1.283.779v4.512h-1.424v-6.34h1.342zm7.963 5.32c.355 0 .65-.103.885-.31.234-.207.359-.463.375-.768h1.341a2.098 2.098 0 01-.369 1.108c-.23.34-.543.609-.937.808-.395.2-.821.299-1.278.299-.886 0-1.589-.287-2.109-.861-.519-.574-.779-1.367-.779-2.379v-.147c0-.964.258-1.736.773-2.314.516-.582 1.219-.873 2.11-.873.753 0 1.367.22 1.839.662.477.438.727 1.014.75 1.729h-1.341c-.016-.364-.141-.663-.375-.897-.231-.234-.526-.352-.885-.352-.461 0-.817.168-1.067.504-.25.332-.377.838-.38 1.518v.228c0 .688.123 1.202.369 1.541.25.336.609.504 1.078.504zm6.469 1.137c-.903 0-1.635-.283-2.198-.849-.558-.571-.838-1.329-.838-2.274v-.176c0-.633.122-1.197.364-1.693.246-.5.59-.889 1.031-1.166a2.72 2.72 0 011.477-.416c.863 0 1.529.275 1.998.826.472.551.709 1.33.709 2.338v.574h-4.143c.043.524.217.938.521 1.242.309.305.696.457 1.161.457.652 0 1.183-.263 1.593-.791l.768.733a2.582 2.582 0 01-1.02.885c-.421.207-.896.31-1.423.31zm-.17-5.431c-.391 0-.707.136-.95.41-.238.273-.39.654-.457 1.142h2.713v-.105c-.031-.477-.158-.836-.381-1.078-.222-.246-.531-.37-.925-.37zm4.681 3.814c.266 0 .471.076.616.228a.776.776 0 01.216.563.769.769 0 01-.216.557c-.145.144-.35.216-.616.216-.254 0-.455-.072-.603-.216a.742.742 0 01-.223-.557c0-.227.072-.414.217-.563.144-.152.348-.228.609-.228zm0-4.975c.266 0 .471.076.616.229a.775.775 0 01.216.562.768.768 0 01-.216.557c-.145.145-.35.217-.616.217-.254 0-.455-.072-.603-.217a.741.741 0 01-.223-.557.77.77 0 01.217-.562c.144-.153.348-.229.609-.229z" fill="#828282"/><path d="M450.067 105.18h-1.536v-7.42l-2.266.774v-1.301l3.605-1.327h.197v9.274zm13.457-9.242v6.176c0 .982-.315 1.76-.946 2.336-.626.571-1.462.857-2.507.857-1.058 0-1.898-.282-2.52-.844-.622-.567-.933-1.352-.933-2.355v-6.17h1.599v6.182c0 .618.157 1.09.47 1.416.313.326.774.489 1.384.489 1.235 0 1.853-.652 1.853-1.955v-6.132h1.6zm6.551 6.862c0-.407-.144-.72-.432-.94-.283-.22-.798-.442-1.542-.666-.745-.225-1.338-.474-1.778-.749-.842-.53-1.263-1.22-1.263-2.07 0-.745.303-1.358.908-1.84.609-.483 1.398-.724 2.367-.724.644 0 1.217.118 1.721.355a2.82 2.82 0 011.187 1.016c.287.436.431.92.431 1.453h-1.599c0-.482-.153-.859-.457-1.13-.301-.274-.732-.412-1.295-.412-.525 0-.933.112-1.225.336-.288.225-.432.538-.432.94 0 .338.157.622.47.85.313.225.829.445 1.549.66.719.212 1.297.456 1.732.731.436.27.756.584.959.939.203.351.305.764.305 1.238 0 .77-.297 1.384-.889 1.841-.588.452-1.388.679-2.399.679a4.582 4.582 0 01-1.848-.368c-.558-.25-.994-.593-1.307-1.029-.309-.435-.464-.943-.464-1.523h1.606c0 .525.174.931.521 1.219.347.287.844.431 1.492.431.558 0 .977-.112 1.256-.336.284-.229.426-.529.426-.901zm3.015 2.38v-9.242h2.729c.817 0 1.541.182 2.171.546.635.364 1.126.88 1.473 1.549.347.668.52 1.434.52 2.297v.464c0 .876-.175 1.646-.526 2.31a3.648 3.648 0 01-1.492 1.536c-.643.36-1.382.54-2.215.54h-2.66zm1.606-7.947v6.665h1.047c.842 0 1.488-.263 1.936-.787.453-.529.684-1.287.692-2.273v-.514c0-1.003-.218-1.769-.654-2.298-.436-.529-1.068-.793-1.898-.793h-1.123z" fill="#4F4F4F"/><defs><linearGradient id="paint0_linear" x1="310.5" y1="190" x2="310.5" y2="197" gradientUnits="userSpaceOnUse"><stop stop-color="#2D9CDB"/><stop offset="1" stop-color="#255F80"/></linearGradient><linearGradient id="paint1_linear" x1="89" y1="64.18" x2="89" y2="148.18" gradientUnits="userSpaceOnUse"><stop stop-color="#2D9CDB"/><stop offset="1" stop-color="#255F80"/></linearGradient><linearGradient id="paint2_linear" x1="138" y1="98.18" x2="138" y2="148.18" gradientUnits="userSpaceOnUse"><stop stop-color="#2D9CDB"/><stop offset="1" stop-color="#255F80"/></linearGradient><linearGradient id="paint3_linear" x1="188" y1="72.18" x2="188" y2="148.18" gradientUnits="userSpaceOnUse"><stop stop-color="#2D9CDB"/><stop offset="1" stop-color="#255F80"/></linearGradient><linearGradient id="paint4_linear" x1="237" y1="126.18" x2="237" y2="148.18" gradientUnits="userSpaceOnUse"><stop stop-color="#2D9CDB"/><stop offset="1" stop-color="#255F80"/></linearGradient><linearGradient id="paint5_linear" x1="287" y1="81.18" x2="287" y2="148.18" gradientUnits="userSpaceOnUse"><stop stop-color="#2D9CDB"/><stop offset="1" stop-color="#255F80"/></linearGradient><linearGradient id="paint6_linear" x1="2" y1="0" x2="2" y2="11" gradientUnits="userSpaceOnUse"><stop stop-color="#DB8539"/><stop offset="1" stop-color="#F2994A"/></linearGradient><linearGradient id="paint7_linear" x1="2" y1="0" x2="2" y2="7" gradientUnits="userSpaceOnUse"><stop stop-color="#DB8539"/><stop offset="1" stop-color="#F2994A"/></linearGradient><linearGradient id="paint8_linear" x1="2" y1="0" x2="2" y2="12" gradientUnits="userSpaceOnUse"><stop stop-color="#DB8539"/><stop offset="1" stop-color="#F2994A"/></linearGradient><linearGradient id="paint9_linear" x1="2" y1="0" x2="2" y2="7" gradientUnits="userSpaceOnUse"><stop stop-color="#DB8539"/><stop offset="1" stop-color="#F2994A"/></linearGradient><linearGradient id="paint10_linear" x1="2" y1="0" x2="2" y2="11.052" gradientUnits="userSpaceOnUse"><stop stop-color="#DB8539"/><stop offset="1" stop-color="#F2994A"/></linearGradient><linearGradient id="paint11_linear" x1="2" y1="0" x2="2" y2="11.052" gradientUnits="userSpaceOnUse"><stop stop-color="#DB8539"/><stop offset="1" stop-color="#F2994A"/></linearGradient><linearGradient id="paint12_linear" x1="2" y1="0" x2="2" y2="8.232" gradientUnits="userSpaceOnUse"><stop stop-color="#DB8539"/><stop offset="1" stop-color="#F2994A"/></linearGradient><linearGradient id="paint13_linear" x1="2" y1="0" x2="2" y2="7.925" gradientUnits="userSpaceOnUse"><stop stop-color="#DB8539"/><stop offset="1" stop-color="#F2994A"/></linearGradient><linearGradient id="paint14_linear" x1="2" y1="0" x2="2" y2="7" gradientUnits="userSpaceOnUse"><stop stop-color="#DB8539"/><stop offset="1" stop-color="#F2994A"/></linearGradient><linearGradient id="paint15_linear" x1="2" y1="0" x2="2" y2="12" gradientUnits="userSpaceOnUse"><stop stop-color="#DB8539"/><stop offset="1" stop-color="#F2994A"/></linearGradient><linearGradient id="paint16_linear" x1="2" y1="0" x2="2" y2="8" gradientUnits="userSpaceOnUse"><stop stop-color="#DB8539"/><stop offset="1" stop-color="#F2994A"/></linearGradient><linearGradient id="paint17_linear" x1="2" y1="0" x2="2" y2="14" gradientUnits="userSpaceOnUse"><stop stop-color="#DB8539"/><stop offset="1" stop-color="#F2994A"/></linearGradient><linearGradient id="paint18_linear" x1="336" y1="75.18" x2="336" y2="148.18" gradientUnits="userSpaceOnUse"><stop stop-color="#2D9CDB"/><stop offset="1" stop-color="#255F80"/></linearGradient><linearGradient id="paint19_linear" x1="382" y1="64.18" x2="382" y2="148.18" gradientUnits="userSpaceOnUse"><stop stop-color="#2D9CDB"/><stop offset="1" stop-color="#255F80"/></linearGradient><linearGradient id="paint20_linear" x1="435" y1="64.18" x2="435" y2="148.18" gradientUnits="userSpaceOnUse"><stop stop-color="#2D9CDB"/><stop offset="1" stop-color="#255F80"/></linearGradient><linearGradient id="paint21_linear" x1="484" y1="64.18" x2="484" y2="148.18" gradientUnits="userSpaceOnUse"><stop stop-color="#2D9CDB"/><stop offset="1" stop-color="#255F80"/></linearGradient><linearGradient id="paint22_linear" x1="534" y1="28.18" x2="534" y2="148.18" gradientUnits="userSpaceOnUse"><stop stop-color="#2D9CDB"/><stop offset="1" stop-color="#255F80"/></linearGradient><linearGradient id="paint23_linear" x1="583" y1="103.18" x2="583" y2="148.18" gradientUnits="userSpaceOnUse"><stop stop-color="#2D9CDB"/><stop offset="1" stop-color="#255F80"/></linearGradient><linearGradient id="paint24_linear" x1="633" y1="8.18" x2="633" y2="148.18" gradientUnits="userSpaceOnUse"><stop stop-color="#2D9CDB"/><stop offset="1" stop-color="#255F80"/></linearGradient><linearGradient id="paint25_linear" x1="682" y1="98.18" x2="682" y2="148.18" gradientUnits="userSpaceOnUse"><stop stop-color="#2D9CDB"/><stop offset="1" stop-color="#255F80"/></linearGradient><linearGradient id="paint26_linear" x1="732" y1="56.18" x2="732" y2="148.18" gradientUnits="userSpaceOnUse"><stop stop-color="#2D9CDB"/><stop offset="1" stop-color="#255F80"/></linearGradient><linearGradient id="paint27_linear" x1="781" y1="64.18" x2="781" y2="148.18" gradientUnits="userSpaceOnUse"><stop stop-color="#2D9CDB"/><stop offset="1" stop-color="#255F80"/></linearGradient><filter id="filter0_d" x="343" y="12.18" width="173" height="110" filterUnits="userSpaceOnUse" color-interpolation-filters="sRGB"><feFlood flood-opacity="0" result="BackgroundImageFix"/><feColorMatrix in="SourceAlpha" values="0 0 0 0 0 0 0 0 0 0 0 0 0 0 0 0 0 0 127 0"/><feOffset dx="2" dy="2"/><feGaussianBlur stdDeviation="2"/><feColorMatrix values="0 0 0 0 0 0 0 0 0 0 0 0 0 0 0 0 0 0 0.1 0"/><feBlend in2="BackgroundImageFix" result="effect1_dropShadow"/><feBlend in="SourceGraphic" in2="effect1_dropShadow" result="shape"/></filter></defs></svg>