<svg width="15" height="10" fill="none" xmlns="http://www.w3.org/2000/svg"><path d="M10.706 3.45a.168.168 0 01.045-.126l1.442-1.563a.188.188 0 01.257-.016 7.222 7.222 0 011.635 1.945c.023.04.029.088.015.132a.175.175 0 01-.087.104l-1.917.998a.188.188 0 01-.247-.069 4.775 4.775 0 00-1.081-1.286.17.17 0 01-.062-.12zm-.644-.58a.188.188 0 01-.246.072 5.075 5.075 0 00-1.643-.503.175.175 0 01-.155-.195L8.31.18a.18.18 0 01.205-.149c.875.114 1.714.37 2.494.765a.17.17 0 01.076.235L10.062 2.87zm2.345 2.792l2.108-.545a.19.19 0 01.139.017c.042.023.072.06.085.105a6.848 6.848 0 01.253 2.209.178.178 0 01-.19.165l-2.183-.096a.186.186 0 01-.126-.056.169.169 0 01-.047-.125 4.517 4.517 0 00-.167-1.461.173.173 0 01.128-.213zM4.247.673A7.73 7.73 0 016.77.001a.187.187 0 01.133.039c.037.029.06.071.065.117l.211 2.072a.176.176 0 01-.164.19 5.091 5.091 0 00-1.661.442.19.19 0 01-.14.007.18.18 0 01-.103-.088L4.162.905a.17.17 0 01.085-.232zm-3.209 2.91a.166.166 0 01.02-.131 7.265 7.265 0 011.713-1.885.189.189 0 01.256.025l1.378 1.615a.168.168 0 01-.026.244c-.453.351-.834.77-1.133 1.247a.188.188 0 01-.25.06L1.121 3.69a.175.175 0 01-.083-.107zM.342 4.975a.184.184 0 01.228-.113l2.085.622a.172.172 0 01.119.217 4.517 4.517 0 00-.22 1.635.169.169 0 01-.047.125.186.186 0 01-.126.056l-2.183.096H.19a.178.178 0 01-.182-.165 6.828 6.828 0 01.334-2.473zm7.164 1.771c.032 0 .063.001.094.003l2.957-1.663a.194.194 0 01.225.025c.06.055.075.142.036.213l-1.613 2.88a1.579 1.579 0 01-.491 1.319A1.74 1.74 0 017.506 10 1.74 1.74 0 016.3 9.523a1.579 1.579 0 01-.5-1.15c0-.435.178-.843.5-1.15a1.74 1.74 0 011.207-.477z" fill="#2F80ED"/></svg>